<svg width="25" height="24" viewBox="0 0 25 24" fill="none" xmlns="http://www.w3.org/2000/svg">
<g clip-path="url(#clip0_597_4957)">
<mask id="path-1-inside-1_597_4957" fill="white">
<path d="M24.4885 12.2245C24.4885 11.2413 24.4069 10.5238 24.2301 9.77966H12.739V14.2176H19.484C19.3481 15.3205 18.6138 16.9815 16.9819 18.0976L16.959 18.2462L20.5923 20.9964L20.844 21.0209C23.1558 18.9347 24.4885 15.8653 24.4885 12.2245Z"/>
</mask>
<path d="M24.4885 12.2245C24.4885 11.2413 24.4069 10.5238 24.2301 9.77966H12.739V14.2176H19.484C19.3481 15.3205 18.6138 16.9815 16.9819 18.0976L16.959 18.2462L20.5923 20.9964L20.844 21.0209C23.1558 18.9347 24.4885 15.8653 24.4885 12.2245Z" fill="#4285F4"/>
<path d="M24.2301 9.77966L25.2031 9.54859L25.0205 8.77966H24.2301V9.77966ZM12.739 9.77966V8.77966H11.739V9.77966H12.739ZM12.739 14.2176H11.739V15.2176H12.739V14.2176ZM19.484 14.2176L20.4765 14.34L20.6149 13.2176H19.484V14.2176ZM16.9819 18.0976L16.4173 17.2722L16.0595 17.5169L15.9935 17.9454L16.9819 18.0976ZM16.959 18.2462L15.9706 18.094L15.8799 18.6835L16.3554 19.0435L16.959 18.2462ZM20.5923 20.9964L19.9887 21.7937L20.214 21.9642L20.4952 21.9916L20.5923 20.9964ZM20.844 21.0209L20.7469 22.0162L21.1862 22.059L21.5139 21.7633L20.844 21.0209ZM25.4885 12.2245C25.4885 11.1767 25.4006 10.3803 25.2031 9.54859L23.2572 10.0107C23.4131 10.6672 23.4885 11.3059 23.4885 12.2245H25.4885ZM24.2301 8.77966H12.739V10.7797H24.2301V8.77966ZM11.739 9.77966V14.2176H13.739V9.77966H11.739ZM12.739 15.2176H19.484V13.2176H12.739V15.2176ZM18.4916 14.0953C18.3874 14.9401 17.7908 16.3328 16.4173 17.2722L17.5464 18.923C19.4367 17.6302 20.3088 15.701 20.4765 14.34L18.4916 14.0953ZM15.9935 17.9454L15.9706 18.094L17.9473 18.3983L17.9702 18.2498L15.9935 17.9454ZM16.3554 19.0435L19.9887 21.7937L21.1958 20.199L17.5625 17.4488L16.3554 19.0435ZM20.4952 21.9916L20.7469 22.0162L20.941 20.0256L20.6893 20.0011L20.4952 21.9916ZM21.5139 21.7633C24.0582 19.4674 25.4885 16.1167 25.4885 12.2245H23.4885C23.4885 15.6139 22.2533 18.4021 20.174 20.2785L21.5139 21.7633Z" fill="#4285F4" mask="url(#path-1-inside-1_597_4957)"/>
<path d="M12.739 23.9176C16.0435 23.9176 18.8177 22.8545 20.844 21.0209L16.9819 18.0976C15.9484 18.8018 14.5612 19.2934 12.739 19.2934C9.50248 19.2934 6.75551 17.2074 5.77629 14.324L5.63276 14.3359L1.85483 17.1927L1.80542 17.3269C3.81804 21.2334 7.95214 23.9176 12.739 23.9176Z" fill="#34A853"/>
<path d="M5.77634 14.324C5.51797 13.5799 5.36844 12.7826 5.36844 11.9588C5.36844 11.1349 5.51797 10.3377 5.76275 9.5936L5.75591 9.43513L1.93062 6.53241L1.80547 6.59058C0.975969 8.21168 0.5 10.0321 0.5 11.9588C0.5 13.8855 0.975969 15.7058 1.80547 17.3269L5.77634 14.324Z" fill="#FBBC05"/>
<path d="M12.739 4.62403C15.0372 4.62403 16.5875 5.59402 17.4714 6.40461L20.9255 3.10928C18.8042 1.1826 16.0435 0 12.739 0C7.95214 0 3.81804 2.68406 1.80542 6.59056L5.7627 9.59359C6.75551 6.7102 9.50248 4.62403 12.739 4.62403Z" fill="#EB4335"/>
</g>
<defs>
<clipPath id="clip0_597_4957">
<rect width="24" height="24" fill="white" transform="translate(0.5)"/>
</clipPath>
</defs>
</svg>
