<svg width="12" height="232" viewBox="0 0 12 232" fill="none" xmlns="http://www.w3.org/2000/svg">
<path d="M5.99999 0.226501L0.226487 6.00002L5.99999 11.7735L11.7735 6.00002L5.99999 0.226501ZM7 232L7 229.543L5 229.543L5 232L7 232ZM7 224.63L7 219.717L5 219.717L5 224.63L7 224.63ZM7 214.804L7 209.891L5 209.891L5 214.804L7 214.804ZM7 204.978L7 200.065L5 200.065L5 204.978L7 204.978ZM7 195.152L7 190.239L5 190.239L5 195.152L7 195.152ZM7 185.326L7 180.413L5 180.413L5 185.326L7 185.326ZM7 175.5L7 170.587L5 170.587L5 175.5L7 175.5ZM7 165.674L7 160.761L5 160.761L5 165.674L7 165.674ZM7 155.848L7 150.935L5 150.935L5 155.848L7 155.848ZM7 146.022L7 141.109L5 141.109L5 146.022L7 146.022ZM7 136.196L7 131.283L5 131.283L5 136.196L7 136.196ZM7 126.37L7 121.457L5 121.457L5 126.37L7 126.37ZM6.99999 116.544L6.99999 111.63L4.99999 111.63L4.99999 116.544L6.99999 116.544ZM6.99999 106.717L6.99999 101.804L4.99999 101.804L4.99999 106.717L6.99999 106.717ZM6.99999 96.8913L6.99999 91.9783L4.99999 91.9783L4.99999 96.8913L6.99999 96.8913ZM6.99999 87.0653L6.99999 82.1522L4.99999 82.1522L4.99999 87.0653L6.99999 87.0653ZM6.99999 77.2392L6.99999 72.3261L4.99999 72.3261L4.99999 77.2392L6.99999 77.2392ZM6.99999 67.4131L6.99999 62.5001L4.99999 62.5001L4.99999 67.4131L6.99999 67.4131ZM6.99999 57.587L6.99999 52.674L4.99999 52.674L4.99999 57.587L6.99999 57.587ZM6.99999 47.7609L6.99999 42.8479L4.99999 42.8479L4.99999 47.7609L6.99999 47.7609ZM6.99999 37.9348L6.99999 33.0218L4.99999 33.0218L4.99999 37.9348L6.99999 37.9348ZM6.99999 28.1088L6.99999 23.1957L4.99999 23.1957L4.99999 28.1088L6.99999 28.1088ZM6.99999 18.2827L6.99999 13.3697L4.99999 13.3697L4.99999 18.2827L6.99999 18.2827ZM6.99999 8.4566L6.99999 6.00002L4.99999 6.00002L4.99999 8.4566L6.99999 8.4566Z" fill="#242424"/>
</svg>
