<svg width="10" height="9" viewBox="0 0 10 9" fill="none" xmlns="http://www.w3.org/2000/svg">
<path d="M5.84577 0.136915L9.51358 3.63801C9.61257 3.73243 9.66858 3.86329 9.66858 4.00021C9.66858 4.13712 9.61257 4.26779 9.51358 4.3624L5.84577 7.8635C5.64583 8.05366 5.32935 8.04649 5.13846 7.84656C4.94765 7.64859 4.95482 7.33078 5.15539 7.13926L7.92084 4.50094H0.831908C0.55578 4.50094 0.331543 4.2767 0.331543 4.00057C0.331543 3.72444 0.55578 3.50062 0.831908 3.50062H7.91954L5.15409 0.862298C4.95382 0.670415 4.94757 0.352608 5.13721 0.154004C5.32894 -0.0460586 5.62695 -0.0531441 5.84577 0.136915Z" fill="#212121"/>
</svg>
