<svg width="16" height="16" viewBox="0 0 16 16" fill="none" xmlns="http://www.w3.org/2000/svg">
<path d="M15.8528 15.1469L11.4309 10.725C12.4059 9.5875 12.9715 8.11563 12.9715 6.5C12.9715 2.90937 10.0612 0 6.47152 0C2.88183 0 -0.000366211 2.91031 -0.000366211 6.5C-0.000366211 10.0897 2.90964 13 6.47152 13C8.08652 13 9.56058 12.4075 10.6965 11.4328L15.1184 15.8547C15.2434 15.95 15.3715 16 15.4996 16C15.6278 16 15.7555 15.9512 15.8531 15.8535C16.0496 15.6594 16.0496 15.3406 15.8528 15.1469ZM6.49964 12C3.44026 12 0.99964 9.53125 0.99964 6.5C0.99964 3.46875 3.44026 1 6.49964 1C9.55902 1 11.9996 3.44062 11.9996 6.5C11.9996 9.55937 9.53089 12 6.49964 12Z" fill="#616161"/>
</svg>
