<svg width="332" height="277" viewBox="0 0 332 277" fill="none" xmlns="http://www.w3.org/2000/svg">
<path d="M294.526 272V264.08L288.502 254.12H292.222L296.83 261.896H295.51L300.094 254.12H303.814L297.814 264.056V272H294.526ZM309.727 272.288C308.447 272.288 307.279 271.992 306.223 271.4C305.183 270.808 304.351 270 303.727 268.976C303.119 267.952 302.815 266.784 302.815 265.472C302.815 264.16 303.119 262.992 303.727 261.968C304.351 260.944 305.183 260.136 306.223 259.544C307.263 258.952 308.431 258.656 309.727 258.656C311.007 258.656 312.167 258.952 313.207 259.544C314.247 260.136 315.071 260.944 315.679 261.968C316.303 262.976 316.615 264.144 316.615 265.472C316.615 266.784 316.303 267.952 315.679 268.976C315.055 270 314.223 270.808 313.183 271.4C312.143 271.992 310.991 272.288 309.727 272.288ZM309.727 269.408C310.431 269.408 311.047 269.24 311.575 268.904C312.119 268.568 312.543 268.104 312.847 267.512C313.167 266.904 313.327 266.224 313.327 265.472C313.327 264.704 313.167 264.032 312.847 263.456C312.543 262.864 312.119 262.4 311.575 262.064C311.047 261.712 310.431 261.536 309.727 261.536C309.007 261.536 308.375 261.712 307.831 262.064C307.287 262.4 306.855 262.864 306.535 263.456C306.231 264.032 306.079 264.704 306.079 265.472C306.079 266.224 306.231 266.904 306.535 267.512C306.855 268.104 307.287 268.568 307.831 268.904C308.375 269.24 309.007 269.408 309.727 269.408ZM323.655 272.288C322.647 272.288 321.767 272.064 321.015 271.616C320.279 271.168 319.711 270.544 319.311 269.744C318.927 268.944 318.735 268.008 318.735 266.936V258.944H321.879V266.672C321.879 267.216 321.983 267.696 322.191 268.112C322.415 268.512 322.727 268.832 323.127 269.072C323.543 269.296 324.007 269.408 324.519 269.408C325.031 269.408 325.487 269.296 325.887 269.072C326.287 268.832 326.599 268.504 326.823 268.088C327.047 267.672 327.159 267.176 327.159 266.6V258.944H330.303V272H327.327V269.432L327.591 269.888C327.287 270.688 326.783 271.288 326.079 271.688C325.391 272.088 324.583 272.288 323.655 272.288Z" fill="#242424"/>
<path d="M310 0.226506L304.226 6.00001L310 11.7735L315.773 6.00001L310 0.226506ZM311 232L311 229.543L309 229.543L309 232L311 232ZM311 224.63L311 219.717L309 219.717L309 224.63L311 224.63ZM311 214.804L311 209.891L309 209.891L309 214.804L311 214.804ZM311 204.978L311 200.065L309 200.065L309 204.978L311 204.978ZM311 195.152L311 190.239L309 190.239L309 195.152L311 195.152ZM311 185.326L311 180.413L309 180.413L309 185.326L311 185.326ZM311 175.5L311 170.587L309 170.587L309 175.5L311 175.5ZM311 165.674L311 160.761L309 160.761L309 165.674L311 165.674ZM311 155.848L311 150.935L309 150.935L309 155.848L311 155.848ZM311 146.022L311 141.109L309 141.109L309 146.022L311 146.022ZM311 136.196L311 131.283L309 131.283L309 136.196L311 136.196ZM311 126.37L311 121.457L309 121.457L309 126.37L311 126.37ZM311 116.544L311 111.63L309 111.63L309 116.544L311 116.544ZM311 106.717L311 101.804L309 101.804L309 106.717L311 106.717ZM311 96.8913L311 91.9783L309 91.9783L309 96.8913L311 96.8913ZM311 87.0653L311 82.1522L309 82.1522L309 87.0653L311 87.0653ZM311 77.2392L311 72.3261L309 72.3261L309 77.2392L311 77.2392ZM311 67.4131L311 62.5001L309 62.5001L309 67.4131L311 67.4131ZM311 57.587L311 52.674L309 52.674L309 57.587L311 57.587ZM311 47.7609L311 42.8479L309 42.8479L309 47.7609L311 47.7609ZM311 37.9348L311 33.0218L309 33.0218L309 37.9348L311 37.9348ZM311 28.1088L311 23.1957L309 23.1957L309 28.1088L311 28.1088ZM311 18.2827L311 13.3697L309 13.3697L309 18.2827L311 18.2827ZM311 8.45661L311 6.00001L309 6.00001L309 8.45661L311 8.45661Z" fill="#242424"/>
<path d="M276.274 265.5L270.5 259.726L264.726 265.5L270.5 271.274L276.274 265.5ZM1 265.5H0V266.5H1V265.5ZM0 170.5V172.875H2V170.5H0ZM0 177.625V182.375H2V177.625H0ZM0 187.125V191.875H2V187.125H0ZM0 196.625V201.375H2V196.625H0ZM0 206.125V210.875H2V206.125H0ZM0 215.625V220.375H2V215.625H0ZM0 225.125V229.875H2V225.125H0ZM0 234.625V239.375H2V234.625H0ZM0 244.125V248.875H2V244.125H0ZM0 253.625V258.375H2V253.625H0ZM0 263.125V265.5H2V263.125H0ZM1 266.5H3.49537V264.5H1V266.5ZM8.48611 266.5H13.4769V264.5H8.48611V266.5ZM18.4676 266.5H23.4583V264.5H18.4676V266.5ZM28.4491 266.5H33.4398V264.5H28.4491V266.5ZM38.4306 266.5H43.4213V264.5H38.4306V266.5ZM48.412 266.5H53.4028V264.5H48.412V266.5ZM58.3935 266.5H63.3843V264.5H58.3935V266.5ZM68.375 266.5H73.3657V264.5H68.375V266.5ZM78.3565 266.5H83.3472V264.5H78.3565V266.5ZM88.338 266.5H93.3287V264.5H88.338V266.5ZM98.3194 266.5H103.31V264.5H98.3194V266.5ZM108.301 266.5H113.292V264.5H108.301V266.5ZM118.282 266.5H123.273V264.5H118.282V266.5ZM128.264 266.5H133.255V264.5H128.264V266.5ZM138.245 266.5H143.236V264.5H138.245V266.5ZM148.227 266.5H153.218V264.5H148.227V266.5ZM158.208 266.5H163.199V264.5H158.208V266.5ZM168.19 266.5H173.181V264.5H168.19V266.5ZM178.171 266.5H183.162V264.5H178.171V266.5ZM188.153 266.5H193.143V264.5H188.153V266.5ZM198.134 266.5H203.125V264.5H198.134V266.5ZM208.116 266.5H213.106V264.5H208.116V266.5ZM218.097 266.5H223.088V264.5H218.097V266.5ZM228.079 266.5H233.069V264.5H228.079V266.5ZM238.06 266.5H243.051V264.5H238.06V266.5ZM248.042 266.5H253.032V264.5H248.042V266.5ZM258.023 266.5H263.014V264.5H258.023V266.5ZM268.005 266.5H270.5V264.5H268.005V266.5Z" fill="#242424"/>
</svg>
