<svg width="32" height="32" viewBox="0 0 32 32" fill="none" xmlns="http://www.w3.org/2000/svg">
<path d="M11.5 7.07001C12.1631 7.07001 12.7989 6.80662 13.2678 6.33777C13.7366 5.86893 14 5.23305 14 4.57001C14 3.90697 13.7366 3.27108 13.2678 2.80224C12.7989 2.3334 12.1631 2.07001 11.5 2.07001C10.837 2.07001 10.2011 2.3334 9.73224 2.80224C9.2634 3.27108 9.00001 3.90697 9.00001 4.57001C9.00001 5.23305 9.2634 5.86893 9.73224 6.33777C10.2011 6.80662 10.837 7.07001 11.5 7.07001ZM20.5 7.07001C21.1631 7.07001 21.7989 6.80662 22.2678 6.33777C22.7366 5.86893 23 5.23305 23 4.57001C23 3.90697 22.7366 3.27108 22.2678 2.80224C21.7989 2.3334 21.1631 2.07001 20.5 2.07001C19.837 2.07001 19.2011 2.3334 18.7322 2.80224C18.2634 3.27108 18 3.90697 18 4.57001C18 5.23305 18.2634 5.86893 18.7322 6.33777C19.2011 6.80662 19.837 7.07001 20.5 7.07001ZM17.563 15.561C17.9775 14.882 18.6447 14.3954 19.4179 14.2083C20.191 14.0211 21.0069 14.1487 21.686 14.563L28.516 18.729C29.1952 19.1435 29.682 19.8109 29.8691 20.5843C30.0563 21.3577 29.9285 22.1738 29.514 22.853C29.0995 23.5322 28.4321 24.019 27.6587 24.2061C26.8853 24.3933 26.0692 24.2655 25.39 23.851L18.561 19.684C17.882 19.2695 17.3954 18.6023 17.2083 17.8292C17.0211 17.056 17.1487 16.2401 17.563 15.561ZM3.59801 18.68C2.92449 19.0855 2.43705 19.7392 2.24058 20.5004C2.04411 21.2617 2.15431 22.0696 2.54746 22.7504C2.94061 23.4312 3.5853 23.9305 4.34282 24.1408C5.10034 24.3511 5.91015 24.2557 6.59801 23.875L13.526 19.875C14.2094 19.4744 14.7066 18.8196 14.9091 18.0538C15.1116 17.2879 15.0029 16.473 14.6068 15.7869C14.2107 15.1009 13.5593 14.5993 12.7948 14.3918C12.0303 14.1842 11.2147 14.2875 10.526 14.679L3.59801 18.679V18.68Z" fill="#D3883E"/>
<path d="M24 10.152C24 14.57 20.418 16.07 16 16.07C11.582 16.07 8 14.57 8 10.152C8 5.73401 12.5 2.57001 16 2.57001C19.5 2.57001 24 5.73401 24 10.152Z" fill="#E19747"/>
<path d="M24 10.152C24 14.57 20.418 16.07 16 16.07C11.582 16.07 8 14.57 8 10.152C8 5.73401 12.5 2.57001 16 2.57001C19.5 2.57001 24 5.73401 24 10.152Z" fill="#FF822D"/>
<path d="M21.23 15.017C22.927 14.115 24 12.571 24 10.152C24 5.73401 19.5 2.57001 16 2.57001C12.5 2.57001 8 5.73401 8 10.152C8 12.571 9.073 14.115 10.77 15.017C9.53523 16.0839 8.65628 17.503 8.25106 19.0838C7.84585 20.6645 7.93374 22.3314 8.50297 23.8608C9.07219 25.3902 10.0955 26.7089 11.4356 27.64C12.7758 28.5712 14.3686 29.0703 16.0005 29.0703C17.6324 29.0703 19.2252 28.5712 20.5654 27.64C21.9055 26.7089 22.9288 25.3902 23.498 23.8608C24.0673 22.3314 24.1552 20.6645 23.7499 19.0838C23.3447 17.503 22.4658 16.0839 21.231 15.017H21.23Z" fill="#E19747"/>
<path d="M7.54004 22.52C7.90877 22.2455 8.32797 22.0463 8.77369 21.9338C9.21941 21.8213 9.68293 21.7978 10.1378 21.8644C10.5926 21.9311 11.0299 22.0867 11.4245 22.3224C11.8192 22.5581 12.1636 22.8692 12.438 23.238L13.334 24.441C13.8883 25.1857 14.1241 26.1202 13.9894 27.0387C13.8548 27.9573 13.3608 28.7847 12.616 29.339C11.8713 29.8933 10.9369 30.1291 10.0183 29.9944C9.09978 29.8598 8.27234 29.3657 7.71804 28.621L6.82304 27.418C6.26884 26.6735 6.03303 25.7394 6.16749 24.821C6.30195 23.9027 6.79566 23.0754 7.54004 22.521V22.52ZM24.471 22.52C23.7264 21.9659 22.7922 21.7303 21.8739 21.8649C20.9555 21.9996 20.1283 22.4935 19.574 23.238L18.678 24.441C18.1237 25.1856 17.8879 26.1199 18.0225 27.0384C18.157 27.9568 18.6509 28.7842 19.3955 29.3385C20.1401 29.8928 21.0744 30.1286 21.9929 29.9941C22.9113 29.8595 23.7387 29.3656 24.293 28.621L25.189 27.418C25.7431 26.6734 25.9788 25.7392 25.8441 24.8208C25.7095 23.9025 25.2156 23.0752 24.471 22.521V22.52Z" fill="#D3883E"/>
<path d="M21.856 5.21201C22.0055 4.89651 22.0403 4.53874 21.9543 4.20035C21.8684 3.86195 21.6671 3.56414 21.3851 3.35824C21.1032 3.15234 20.7582 3.05124 20.4097 3.07238C20.0612 3.09351 19.731 3.23555 19.476 3.47401C20.3572 3.92221 21.1608 4.50902 21.856 5.21201ZM12.524 3.47401C12.269 3.23555 11.9388 3.09351 11.5903 3.07238C11.2418 3.05124 10.8968 3.15234 10.6149 3.35824C10.3329 3.56414 10.1316 3.86195 10.0456 4.20035C9.95969 4.53874 9.99447 4.89651 10.144 5.21201C10.8392 4.509 11.6427 3.9222 12.524 3.47401ZM19.5 11.5C19.5 12.88 17.933 14.5 16 14.5C14.067 14.5 12.5 12.88 12.5 11.5C12.5 10.12 14.067 9.00001 16 9.00001C17.933 9.00001 19.5 10.12 19.5 11.5ZM21 22.07V22.112C20.4334 22.3546 19.9414 22.7432 19.574 23.238L18.678 24.441C18.2009 25.08 17.9574 25.8632 17.988 26.66C17.378 26.924 16.706 27.07 16 27.07C15.298 27.07 14.63 26.926 14.024 26.665C14.0557 25.8665 13.8121 25.0813 13.334 24.441L12.438 23.238C12.068 22.7396 11.5715 22.3491 11 22.107V22.07C11 20.7439 11.5268 19.4722 12.4645 18.5345C13.4021 17.5968 14.6739 17.07 16 17.07C17.3261 17.07 18.5978 17.5968 19.5355 18.5345C20.4732 19.4722 21 20.7439 21 22.07ZM11.264 24.15C10.9471 23.7245 10.4741 23.4423 9.94905 23.3655C9.42405 23.2887 8.89003 23.4236 8.46449 23.7405C8.03895 24.0574 7.75674 24.5304 7.67995 25.0555C7.60315 25.5805 7.73806 26.1145 8.05499 26.54L8.95099 27.743C9.10786 27.9537 9.30469 28.1315 9.53024 28.2661C9.7558 28.4007 10.0057 28.4896 10.2656 28.5277C10.5255 28.5658 10.7904 28.5523 11.0451 28.488C11.2997 28.4237 11.5393 28.3099 11.75 28.153C11.9607 27.9961 12.1384 27.7993 12.2731 27.5738C12.4077 27.3482 12.4966 27.0983 12.5347 26.8384C12.5728 26.5785 12.5593 26.3137 12.495 26.059C12.4307 25.8043 12.3169 25.5647 12.16 25.354L11.264 24.151V24.15ZM23.546 23.74C23.1206 23.4234 22.5868 23.2888 22.0621 23.3657C21.5374 23.4426 21.0647 23.7247 20.748 24.15L19.852 25.354C19.5352 25.7796 19.4004 26.3135 19.4773 26.8384C19.5542 27.3633 19.8365 27.8362 20.262 28.153C20.6875 28.4698 21.2215 28.6046 21.7464 28.5277C22.2713 28.4508 22.7442 28.1686 23.061 27.743L23.956 26.539C24.2726 26.1136 24.4072 25.5798 24.3303 25.0551C24.2534 24.5304 23.9713 24.0577 23.546 23.741V23.74Z" fill="#FFDEA7"/>
<path d="M14 8.5C14 8.63261 13.9473 8.75979 13.8536 8.85355C13.7598 8.94732 13.6326 9 13.5 9C13.3674 9 13.2402 8.94732 13.1464 8.85355C13.0527 8.75979 13 8.63261 13 8.5C13 8.36739 13.0527 8.24021 13.1464 8.14645C13.2402 8.05268 13.3674 8 13.5 8C13.6326 8 13.7598 8.05268 13.8536 8.14645C13.9473 8.24021 14 8.36739 14 8.5ZM19 8.5C19 8.63261 18.9473 8.75979 18.8536 8.85355C18.7598 8.94732 18.6326 9 18.5 9C18.3674 9 18.2402 8.94732 18.1464 8.85355C18.0527 8.75979 18 8.63261 18 8.5C18 8.36739 18.0527 8.24021 18.1464 8.14645C18.2402 8.05268 18.3674 8 18.5 8C18.6326 8 18.7598 8.05268 18.8536 8.14645C18.9473 8.24021 19 8.36739 19 8.5ZM15.042 10.299C15.081 10.2101 15.1452 10.1344 15.2265 10.0813C15.3078 10.0282 15.4029 9.99996 15.5 10H16.5C16.5971 9.99996 16.6922 10.0282 16.7735 10.0813C16.8548 10.1344 16.919 10.2101 16.958 10.299C17.011 10.42 16.948 10.553 16.854 10.646L16.354 11.146C16.3076 11.1926 16.2524 11.2295 16.1916 11.2547C16.1309 11.2799 16.0658 11.2929 16 11.2929C15.9342 11.2929 15.8691 11.2799 15.8084 11.2547C15.7476 11.2295 15.6924 11.1926 15.646 11.146L15.146 10.646C15.053 10.553 14.989 10.42 15.042 10.299Z" fill="black"/>
</svg>
