<svg width="32" height="32" viewBox="0 0 32 32" fill="none" xmlns="http://www.w3.org/2000/svg">
<g clip-path="url(#clip0_1014_3566)">
<path d="M16 32C24.8366 32 32 28.0203 32 23.1111C32 18.2019 24.8366 14.2222 16 14.2222C7.16344 14.2222 0 18.2019 0 23.1111C0 28.0203 7.16344 32 16 32Z" fill="#8899A6"/>
<path d="M16 30.4444C24.8366 30.4444 32 26.4647 32 21.5555C32 16.6463 24.8366 12.6667 16 12.6667C7.16344 12.6667 0 16.6463 0 21.5555C0 26.4647 7.16344 30.4444 16 30.4444Z" fill="#CCD6DD"/>
<path d="M29.0445 21.0533C29.0445 24.84 23.2045 27.9084 16 27.9084C8.79557 27.9084 2.95557 24.84 2.95557 21.0533C2.95557 17.2684 8.79557 14.1991 16 14.1991C23.2036 14.1991 29.0445 17.2684 29.0445 21.0533Z" fill="#DD2E44"/>
<path d="M28.6516 20.0382C28.6516 28.7973 3.34845 28.7973 3.34845 20.0382V12.2524H28.6516V20.0382Z" fill="#F4ABBA"/>
<path d="M15.9858 16.1476C7.99998 16.1476 3.34754 12.4747 3.34754 12.4747C3.34754 12.4747 3.33331 13.296 3.33331 13.9724C3.33331 13.9724 3.36176 18.3262 5.61954 18.3262C7.80531 18.3262 7.6462 20.4133 9.02754 20.6293C10.3973 20.8436 10.5493 19.7956 12.2498 19.7956C13.9502 19.7956 14.2498 21.6676 15.9858 21.6676C18.0204 21.6676 18.1875 19.7956 19.8871 19.7956C21.5866 19.7956 21.7822 20.8836 22.8969 20.5822C24.2364 20.2196 23.6204 18.3271 26.352 18.3271C28.6098 18.3271 28.6658 14.1956 28.6658 14.1956C28.6658 13.52 28.6506 12.4756 28.6506 12.4756C28.6506 12.4756 23.9724 16.1476 15.9858 16.1476Z" fill="#DD2E44"/>
<path d="M29.0445 11.3218C29.0445 15.1076 23.2045 18.1769 16 18.1769C8.79557 18.1769 2.95557 15.1076 2.95557 11.3218C2.95557 7.53601 8.79557 4.46667 16 4.46667C23.2036 4.46667 29.0445 7.53601 29.0445 11.3218Z" fill="#EA596E"/>
<path d="M22.8124 12.2525C22.2747 12.2525 21.8391 11.8169 21.8391 11.2791V4.46668C21.8391 4.20854 21.9417 3.96097 22.1242 3.77843C22.3067 3.59589 22.5543 3.49335 22.8124 3.49335C23.0706 3.49335 23.3182 3.59589 23.5007 3.77843C23.6832 3.96097 23.7858 4.20854 23.7858 4.46668V11.2791C23.7858 11.8169 23.3502 12.2525 22.8124 12.2525Z" fill="#FFF8E8"/>
<path d="M22.8124 5.92622C21.7795 5.92622 20.9671 5.45333 20.6391 4.66133C20.3546 3.97422 20.2133 2.48355 22.4684 0.229331C22.5136 0.184125 22.5672 0.148262 22.6262 0.123794C22.6852 0.0993252 22.7485 0.086731 22.8124 0.086731C22.8763 0.086731 22.9396 0.0993252 22.9986 0.123794C23.0576 0.148262 23.1113 0.184125 23.1564 0.229331C25.4115 2.48444 25.2702 3.97422 24.9857 4.66133C24.6577 5.45333 23.8453 5.92622 22.8124 5.92622Z" fill="#FAAA35"/>
<path d="M16 15.1716C15.4622 15.1716 15.0267 14.736 15.0267 14.1982V7.38666C15.0267 7.25884 15.0518 7.13227 15.1008 7.01418C15.1497 6.89609 15.2214 6.78879 15.3118 6.69841C15.4021 6.60803 15.5094 6.53633 15.6275 6.48742C15.7456 6.43851 15.8722 6.41333 16 6.41333C16.1278 6.41333 16.2544 6.43851 16.3725 6.48742C16.4906 6.53633 16.5979 6.60803 16.6883 6.69841C16.7786 6.78879 16.8503 6.89609 16.8992 7.01418C16.9482 7.13227 16.9733 7.25884 16.9733 7.38666V14.1991C16.9733 14.736 16.5378 15.1716 16 15.1716Z" fill="#FFF8E8"/>
<path d="M16 8.84623C14.9671 8.84623 14.1547 8.37334 13.8267 7.58134C13.5413 6.89423 13.4009 5.40357 15.656 3.14934C15.7012 3.10414 15.7548 3.06828 15.8138 3.04381C15.8728 3.01934 15.9361 3.00674 16 3.00674C16.0639 3.00674 16.1272 3.01934 16.1862 3.04381C16.2452 3.06828 16.2988 3.10414 16.344 3.14934C18.5991 5.40446 18.4578 6.89423 18.1733 7.58134C17.8453 8.37334 17.0329 8.84623 16 8.84623Z" fill="#FAAA35"/>
<path d="M9.18757 12.2525C8.64979 12.2525 8.21423 11.8169 8.21423 11.2791V4.46668C8.21423 4.33886 8.23941 4.21229 8.28832 4.0942C8.33724 3.97611 8.40893 3.86881 8.49932 3.77843C8.5897 3.68805 8.697 3.61635 8.81509 3.56744C8.93318 3.51852 9.05975 3.49335 9.18757 3.49335C9.31539 3.49335 9.44195 3.51852 9.56005 3.56744C9.67814 3.61635 9.78543 3.68805 9.87582 3.77843C9.9662 3.86881 10.0379 3.97611 10.0868 4.0942C10.1357 4.21229 10.1609 4.33886 10.1609 4.46668V11.2791C10.1609 11.8169 9.72534 12.2525 9.18757 12.2525Z" fill="#FFF8E8"/>
<path d="M9.18756 5.92622C8.15467 5.92622 7.34223 5.45333 7.01423 4.66133C6.72889 3.97422 6.58845 2.48355 8.84356 0.229331C8.88872 0.184125 8.94234 0.148262 9.00137 0.123794C9.06039 0.0993252 9.12366 0.086731 9.18756 0.086731C9.25146 0.086731 9.31473 0.0993252 9.37375 0.123794C9.43278 0.148262 9.4864 0.184125 9.53156 0.229331C11.7867 2.48444 11.6453 3.97422 11.3609 4.66133C11.0329 5.45333 10.2205 5.92622 9.18756 5.92622Z" fill="#FAAA35"/>
</g>
<defs>
<clipPath id="clip0_1014_3566">
<rect width="32" height="32" fill="white"/>
</clipPath>
</defs>
</svg>
