<svg width="32" height="32" viewBox="0 0 32 32" fill="none" xmlns="http://www.w3.org/2000/svg">
<g clip-path="url(#clip0_1014_3088)">
<path d="M18.1475 14.59C17.985 14.885 17.8225 15.1825 17.6675 15.4775L17.5375 15.7225L17.525 15.7425C17.9825 16.35 18.375 17.0025 18.685 17.665C18.73 17.7575 18.7725 17.8525 18.815 17.9475C19.2575 17.8175 19.7025 17.745 20.1375 17.7275C19.81 16.86 19.305 15.96 18.5625 15.05C18.4325 14.8925 18.29 14.7425 18.1475 14.59ZM19.4825 21.29C19.39 21.29 19.295 21.295 19.2 21.305C18.6825 22.94 17.0025 23.655 15.2275 23.435C12.44 23.0925 9.8825 20.9725 9.025 18.31C8.85 17.7775 8.79 17.2475 8.77 16.6825C8.72 15.2275 9 13.67 10.4575 13.0675L10.475 13.06C10.5225 13.04 10.57 13.0275 10.6175 13.0125C10.5125 12.855 10.405 12.69 10.3025 12.5075C10.1575 12.25 10.07 11.9775 10.0175 11.7125C8.455 12.2575 7.5025 13.6375 6.835 15.1575C6.1975 16.6125 2.055 27.8 2.055 27.8L1.5 29.3C1.31 29.82 1.015 30.3425 1.015 30.91C1.015 31.5725 1.605 32.025 2.27 31.84C2.715 31.715 3.205 31.485 3.6575 31.305C4.615 30.915 6.39 30.1475 6.39 30.1475L13.81 27.0925C13.81 27.0925 17.3875 25.7975 18.8925 24.38C19.6225 23.6925 20.2075 22.7025 20.465 21.52C20.4125 21.4925 20.3575 21.4625 20.3025 21.44C20.0525 21.3375 19.785 21.29 19.4825 21.29ZM13.92 11.885C14.1125 12.2525 14.325 12.67 14.405 13.1875C14.76 13.3375 15.1 13.5175 15.4225 13.73C15.535 13.37 15.6525 13.015 15.775 12.6525C15.7225 12.62 15.67 12.5825 15.6175 12.5525C15.09 12.2525 14.4975 11.9975 13.88 11.8075C13.895 11.835 13.9075 11.8575 13.92 11.885Z" fill="#FCC21B"/>
<path d="M27.9825 7.99499C27.9425 8.24499 27.9525 8.6 27.9925 8.845C28.035 9.12 28.0975 9.41249 28.1975 9.67249C28.34 10.0375 28.515 9.90999 28.8725 9.85999C29.12 9.82749 29.35 9.845 29.595 9.795C29.8525 9.7425 30.1075 9.67499 30.365 9.62499C30.97 9.50999 31.2725 9.375 31.145 8.7375C31.0525 8.2775 30.9 7.81999 30.78 7.36499C30.67 7.26749 30.4575 7.3225 30.3275 7.35249C30.0975 7.40499 29.87 7.4175 29.64 7.4575C29.225 7.525 28.79 7.575 28.3825 7.6725C28.175 7.7175 28.015 7.77999 27.9825 7.99499Z" fill="#D7598B"/>
<path d="M24.7175 15.5C24.8125 15.7175 25.045 15.6625 25.2725 15.7125C25.7775 15.8275 26.29 15.815 26.8075 15.815C27 15.815 27.4875 15.8875 27.625 15.715C27.735 15.575 27.64 15.2975 27.625 15.135L27.565 14.5C27.555 14.4 27.5725 13.745 27.4875 13.69C27.3425 13.5925 27.0675 13.64 26.9025 13.6425C26.6 13.6525 26.3025 13.69 25.995 13.69C25.5975 13.69 25.1675 13.695 24.7825 13.79C24.6475 14.1475 24.685 14.52 24.685 14.9125C24.685 15.095 24.645 15.33 24.7175 15.5Z" fill="#40C0E7"/>
<path d="M22.98 26.2975C22.7725 25.99 22.67 25.5775 22.2075 25.6225C21.7725 25.665 21.3875 26.01 21.005 26.1975C20.7575 26.3175 20.5775 26.5325 20.5275 26.8025C20.47 27.11 20.5975 27.355 20.745 27.6175C20.855 27.815 20.9275 28.0425 21.015 28.25C21.105 28.465 21.2425 28.6575 21.335 28.87C21.3975 29.02 21.3775 29.0075 21.515 29.06C21.585 29.085 21.7 29.105 21.775 29.1075C22.2125 29.12 22.6875 28.6775 23.005 28.4175C23.26 28.2125 23.77 28.0825 23.7175 27.695C23.68 27.4075 23.48 27.13 23.3425 26.8825C23.2275 26.68 23.105 26.485 22.98 26.2975Z" fill="#D7598B"/>
<path d="M27.865 28.3975C27.8075 28.36 27.7525 28.3375 27.7025 28.33C27.4375 28.2825 27.2625 28.6025 27.0525 28.81C26.8 29.0525 26.5 29.245 26.27 29.51C26.0225 29.8 26.215 30.06 26.47 30.215C26.7475 30.3825 26.995 30.5925 27.27 30.7675C27.515 30.925 27.7125 31.065 27.985 30.895C28.2325 30.74 28.37 30.4675 28.54 30.24C28.855 29.815 29.3925 29.4725 28.865 29.005C28.57 28.7425 28.19 28.6125 27.865 28.3975ZM2.25 13.765C2.2625 13.65 2.5875 12.73 2.49 12.7025C2.2675 12.6475 2.0575 12.5425 1.8325 12.4825C1.5725 12.415 1.305 12.3625 1.0625 12.2425C0.77 12.0975 0.59 12.17 0.4675 12.3325C0.295 12.5625 0.24 12.975 0.1575 13.2275C0.0925004 13.425 0.0525004 13.65 0.1925 13.79C0.3525 13.9475 0.6175 14.0375 0.825 14.105C1.085 14.19 1.375 14.34 1.6425 14.365C2.0075 14.405 2.2125 14.075 2.25 13.765ZM17.1575 4.88501C17.4825 5.03001 17.7975 5.11251 18.13 5.20751C18.2475 5.24251 18.3225 5.30001 18.445 5.23501C18.6025 5.15501 18.7775 4.87751 18.865 4.72501C19.0725 4.34751 19.225 3.97501 19.3675 3.57751C19.445 3.36501 19.675 3.02001 19.6175 2.79501C19.5675 2.60501 19.2925 2.48751 19.1375 2.40501C18.93 2.29751 18.7325 2.15251 18.5225 2.06001C18.2525 1.94251 17.8825 1.81501 17.5925 1.77251C17.4325 1.74751 17.32 1.81251 17.2325 1.91501C17.1525 2.00751 17.0925 2.13001 17.0325 2.24251C16.73 2.82251 16.3575 3.69501 16.37 4.36501C16.375 4.68251 16.9175 4.77751 17.1575 4.88501Z" fill="#40C0E7"/>
<path d="M4.1625 8.325C4.345 8.605 4.5075 8.86 4.7225 9.125C4.9325 9.38 5.0825 9.43 5.34 9.2175C5.5025 9.0875 5.6875 8.985 5.8425 8.845C5.99 8.715 6.1125 8.55 6.26 8.415C6.365 8.3175 6.5725 8.22 6.6325 8.085C6.715 7.895 6.5425 7.73 6.4375 7.59C6.3075 7.415 6.2075 7.225 6.065 7.05C5.8825 6.83 5.685 6.6225 5.48 6.4175C5.3125 6.25 5.11 5.9925 4.92 5.8625C4.87 5.83 4.8125 5.8075 4.7525 5.8C4.525 5.7675 4.255 5.8975 4.0775 6.0025C3.835 6.145 3.6 6.3575 3.3875 6.545C3.055 6.84 3.3775 7.2275 3.5725 7.5075C3.7675 7.7775 3.9775 8.04 4.1625 8.325Z" fill="#D7598B"/>
<path d="M4.1825 2.49251C4.35 2.67251 4.5575 2.89001 4.7925 2.99251C5 3.08501 5.2125 2.90001 5.38 2.79751C5.5675 2.68251 5.72 2.51501 5.86 2.34751C5.9875 2.19251 6.16 2.02501 6.255 1.84501C6.365 1.64001 6.215 1.56251 6.0625 1.44001C5.88 1.29001 5.695 1.13501 5.54 0.955007C5.33 0.710007 5.12 0.435007 4.8975 0.210007C4.8225 0.132507 4.7325 0.112507 4.6375 0.130007C4.34 0.180007 3.9875 0.597507 3.8125 0.735007C3.6725 0.842507 3.4275 1.03251 3.385 1.21001C3.3325 1.41001 3.45 1.60251 3.55 1.77001C3.7125 2.04001 3.9625 2.25751 4.1825 2.49251Z" fill="#40C0E7"/>
<path d="M11.465 7.2975C11.81 8.4925 10.89 9.415 10.79 10.5475C10.76 10.875 10.76 11.2025 10.815 11.5175C10.85 11.7225 10.9075 11.9225 11.01 12.105C11.145 12.345 11.3 12.5625 11.4425 12.7875C11.5825 13.005 11.7075 13.225 11.7925 13.4775C11.98 14.0375 11.85 14.5425 11.77 15.0975C11.705 15.54 11.48 15.9575 11.21 16.3075C11.1275 16.415 10.9 16.5525 10.955 16.71C10.9625 16.7375 11.0125 16.7475 11.085 16.7475C11.385 16.7475 12.0925 16.565 12.195 16.5175C12.645 16.3 12.9075 15.86 13.14 15.435C13.485 14.805 13.7075 14.07 13.61 13.3475C13.59 13.1825 13.545 13.0275 13.49 12.8775C13.3225 12.43 13.045 12.03 12.8875 11.5725C12.8675 11.5175 12.8475 11.4625 12.8325 11.405C12.6025 10.51 13.155 9.63249 13.62 8.92C14.0775 8.2225 14.25 7.1975 13.925 6.3975C13.76 5.9925 13.495 5.5875 13.1725 5.29C12.79 4.935 12.2075 4.6125 12.2725 4C12.3275 3.4675 12.6875 2.9075 12.96 2.46749C13.095 2.24499 13.52 1.79 13.505 1.535C13.4925 1.275 13.13 1.145 12.9575 0.992495C12.5675 0.647495 12.2575 0.382495 11.7575 0.224995C11.682 0.198069 11.6026 0.183711 11.5225 0.182495C11.2 0.182495 11.0875 0.474995 10.9075 0.789995C10.5775 1.3725 10.2525 1.9875 10.0325 2.6175C9.6175 3.7875 9.555 4.995 10.4525 6.09C10.7625 6.4725 11.335 6.8475 11.465 7.2975ZM15.52 17.385C15.5825 17.45 15.64 17.4775 15.6925 17.4775C15.79 17.4775 15.8675 17.3775 15.93 17.26C15.9775 17.17 16.015 17.0775 16.045 16.98C16.2125 16.4175 16.545 15.86 16.82 15.34C16.87 15.2475 16.92 15.1575 16.9675 15.0675C17.1575 14.71 17.3525 14.3525 17.555 13.9975C17.7125 13.7175 17.87 13.435 18.04 13.165C18.485 12.4525 19.085 11.6925 19.84 11.295C20.315 11.04 20.85 10.9225 21.3275 10.67C21.87 10.3875 22.1875 9.96 22.54 9.4725C22.89 8.99 23.0725 8.39499 23.3925 7.8875C23.5275 7.67249 23.5075 7.4825 23.745 7.3325C24.2725 7.0025 24.905 7.115 25.49 7.0025C26.8725 6.7375 26.995 4.915 28.125 4.2575C28.3625 4.12 28.605 3.9925 28.845 3.865C28.985 3.78999 29.255 3.6975 29.3525 3.56C29.52 3.325 29.2025 3.01749 29.1075 2.8025C28.9425 2.4325 28.695 2.06 28.4825 1.715C28.3025 1.425 28.1425 1.1625 27.8225 1.1625L27.76 1.1675C27.0375 1.2375 26.3925 1.555 25.93 2.1075C25.3675 2.7825 25.2925 3.825 24.4075 4.195C23.8325 4.435 23.155 4.34 22.61 4.6725C21.965 5.0675 21.7575 5.8475 21.5775 6.5325C21.4425 7.0325 21.435 7.635 21.055 8.0275C20.54 8.555 19.7575 8.62 19.0975 8.9025C18.92 8.98 18.75 9.0725 18.5975 9.1925C17.76 9.8525 17.285 10.935 16.91 11.905C16.7575 12.3025 16.62 12.7075 16.485 13.1125C16.36 13.49 16.2375 13.8675 16.12 14.2475C16.06 14.4425 15.995 14.6375 15.935 14.835C15.7825 15.33 15.6425 15.8375 15.4625 16.325C15.3375 16.6375 15.26 17.115 15.52 17.385ZM31.86 21.7C31.8125 21.65 31.745 21.645 31.6775 21.645L31.6 21.6475L31.5575 21.645C31.4075 21.635 31.2825 21.57 31.1375 21.52C30.47 21.2875 30.0375 21.095 29.4475 20.6975C28.7825 20.25 28.02 19.8325 27.2 19.795L27.105 19.7925C26.295 19.7925 25.5475 20.22 24.735 20.22H24.73C23.83 20.215 23.0525 19.575 22.3425 19.1025C22.2825 19.0625 22.2225 19.025 22.1575 18.99C21.6 18.675 21 18.5375 20.395 18.53C20.38 18.53 20.3625 18.525 20.3475 18.525C19.93 18.525 19.51 18.59 19.1 18.705C18.7 18.815 18.3125 18.975 17.9425 19.1725C17.4127 19.4546 16.9112 19.787 16.445 20.165C16.1875 20.3725 15.905 20.61 15.73 20.8975C15.635 21.05 15.505 21.63 15.7475 21.725L15.78 21.7325C15.875 21.7325 16.03 21.6325 16.0975 21.59C16.6375 21.2575 17.2075 20.9675 17.815 20.7775C18.3125 20.62 18.835 20.505 19.3525 20.485C19.395 20.4825 19.44 20.48 19.4825 20.48C19.855 20.48 20.225 20.5375 20.585 20.6775L20.6 20.685C21.1025 20.885 21.5225 21.23 21.9375 21.5675C22.5475 22.0625 23.225 22.1725 23.915 22.1725C24.4525 22.1725 24.9975 22.1075 25.53 22.1075C26.0875 22.1075 26.6275 22.18 27.125 22.4725C27.53 22.715 27.895 23.0325 28.2075 23.37C28.5525 23.7375 28.9925 24.045 29.51 24.125C29.73 24.16 29.93 24.1775 30.1525 24.18H30.1575C30.5325 24.18 30.675 23.7475 30.865 23.5C31.125 23.165 31.305 22.78 31.5425 22.4275C31.6425 22.2725 32.03 21.87 31.86 21.7Z" fill="#ED6C30"/>
</g>
<defs>
<clipPath id="clip0_1014_3088">
<rect width="32" height="32" fill="white"/>
</clipPath>
</defs>
</svg>
