<svg width="32" height="32" viewBox="0 0 32 32" fill="none" xmlns="http://www.w3.org/2000/svg">
<g clip-path="url(#clip0_1014_3550)">
<path d="M16.3889 2.27778H16.8889H17.7778C17.8809 2.27778 17.9798 2.31875 18.0527 2.39168C18.1257 2.46461 18.1666 2.56353 18.1666 2.66667C18.1666 2.76981 18.1257 2.86872 18.0527 2.94165C17.9798 3.01458 17.8809 3.05556 17.7778 3.05556H16.8889H16.3889V3.55556V8.88889C16.3889 8.99203 16.3479 9.09094 16.275 9.16387C16.202 9.2368 16.1031 9.27778 16 9.27778C15.8968 9.27778 15.7979 9.2368 15.725 9.16388C15.6521 9.09094 15.6111 8.99203 15.6111 8.88889V3.55556V3.05556H15.1111H14.2222C14.1191 3.05556 14.0201 3.01458 13.9472 2.94165C13.8743 2.86872 13.8333 2.76981 13.8333 2.66667C13.8333 2.56353 13.8743 2.46461 13.9472 2.39168C14.0201 2.31875 14.1191 2.27778 14.2222 2.27778H15.1111H15.6111V1.77778V0.888889C15.6111 0.785748 15.6521 0.686833 15.725 0.613903L15.3714 0.26035L15.725 0.613903C15.7979 0.540972 15.8968 0.5 16 0.5C16.1031 0.5 16.202 0.540972 16.275 0.613903C16.3479 0.686833 16.3889 0.785748 16.3889 0.888889V1.77778V2.27778Z" fill="#BCBEC0" stroke="#242424"/>
<path d="M16 8L11.4285 11.5556H11.5556V19.5556H20.4445V11.5556H20.5716L16 8Z" fill="#F4ABBA"/>
<path d="M17.7769 13.3333C17.7665 12.8688 17.5747 12.4269 17.2425 12.102C16.9103 11.7772 16.4642 11.5953 15.9996 11.5953C15.535 11.5953 15.0888 11.7772 14.7566 12.102C14.4244 12.4269 14.2326 12.8688 14.2222 13.3333V19.5556H17.7778L17.7769 13.3333Z" fill="#662113"/>
<path d="M15.9991 16L3.55554 23.1111V31.1111C3.55554 31.3469 3.64919 31.573 3.81589 31.7397C3.98259 31.9064 4.20868 32 4.44443 32H27.5555C27.7913 32 28.0174 31.9064 28.1841 31.7397C28.3508 31.573 28.4444 31.3469 28.4444 31.1111V23.1111L15.9991 16Z" fill="#F4ABBA"/>
<path d="M28.4427 24C28.2882 24.0003 28.1365 23.9598 28.0027 23.8827L15.9991 17.0231L3.99555 23.8827C3.79092 23.9996 3.54822 24.0304 3.32084 23.9684C3.09346 23.9064 2.90003 23.7566 2.7831 23.552C2.66617 23.3474 2.63532 23.1047 2.69733 22.8773C2.75934 22.6499 2.90914 22.4565 3.11377 22.3396L15.5582 15.2284C15.6924 15.1516 15.8444 15.1111 15.9991 15.1111C16.1538 15.1111 16.3058 15.1516 16.44 15.2284L28.8844 22.3396C29.056 22.436 29.1906 22.5867 29.2671 22.768C29.3436 22.9493 29.3577 23.1508 29.3071 23.341C29.2565 23.5312 29.1441 23.6991 28.9876 23.8184C28.8312 23.9377 28.6394 24.0016 28.4427 24ZM20.4435 12.4444C20.2419 12.4443 20.0463 12.3757 19.8889 12.2498L15.9991 9.13867L12.1111 12.2498C11.927 12.3971 11.6919 12.4653 11.4575 12.4393C11.2231 12.4133 11.0087 12.2952 10.8613 12.1111C10.714 11.927 10.6458 11.6919 10.6718 11.4575C10.6978 11.2231 10.8159 11.0087 11 10.8613L15.4435 7.30578C15.6013 7.1797 15.7972 7.11103 15.9991 7.11103C16.201 7.11103 16.3969 7.1797 16.5547 7.30578L21 10.8613C21.1439 10.9764 21.2486 11.1335 21.2993 11.3106C21.3501 11.4878 21.3446 11.6764 21.2834 11.8503C21.2223 12.0242 21.1087 12.1748 20.9582 12.2812C20.8077 12.3877 20.6279 12.4447 20.4435 12.4444Z" fill="#DD2E44"/>
<path d="M11.5547 27.5556C11.56 27.3188 11.5179 27.0834 11.431 26.8631C11.344 26.6429 11.214 26.4422 11.0484 26.2729C10.8828 26.1036 10.6851 25.969 10.4668 25.8772C10.2486 25.7853 10.0142 25.738 9.77735 25.738C9.54054 25.738 9.30612 25.7853 9.08785 25.8772C8.86958 25.969 8.67186 26.1036 8.5063 26.2729C8.34073 26.4422 8.21066 26.6429 8.12372 26.8631C8.03678 27.0834 7.99472 27.3188 8.00002 27.5556V32H11.5556V27.5556H11.5547ZM17.7769 25.7778C17.7665 25.3133 17.5747 24.8713 17.2425 24.5465C16.9103 24.2216 16.4642 24.0397 15.9996 24.0397C15.535 24.0397 15.0888 24.2216 14.7566 24.5465C14.4244 24.8713 14.2326 25.3133 14.2222 25.7778V32H17.7778L17.7769 25.7778ZM23.9991 27.5556C23.9887 27.0911 23.7969 26.6491 23.4647 26.3243C23.1326 25.9994 22.6864 25.8175 22.2218 25.8175C21.7572 25.8175 21.311 25.9994 20.9788 26.3243C20.6467 26.6491 20.4549 27.0911 20.4445 27.5556V32H24L23.9991 27.5556Z" fill="#662113"/>
<path d="M0.888916 5.33333C0.888916 2.87911 4.41158 1.77778 5.33336 5.33333C6.3298 1.77778 9.7778 2.87911 9.7778 5.33333C9.7778 8 5.33336 10.6667 5.33336 10.6667C5.33336 10.6667 0.888916 8 0.888916 5.33333ZM22.2222 5.33333C22.2222 2.87911 25.7449 1.77778 26.6667 5.33333C27.6631 1.77778 31.1111 2.87911 31.1111 5.33333C31.1111 8 26.6667 10.6667 26.6667 10.6667C26.6667 10.6667 22.2222 8 22.2222 5.33333Z" fill="#DD2E44"/>
</g>
<defs>
<clipPath id="clip0_1014_3550">
<rect width="32" height="32" fill="white"/>
</clipPath>
</defs>
</svg>
