<svg width="720" height="657" viewBox="0 0 720 657" fill="none" xmlns="http://www.w3.org/2000/svg">
<g filter="url(#filter0_d_1025_13057)">
<rect x="20" y="20" width="680" height="617" rx="8" fill="#FCFCFC"/>
</g>
<path d="M260.529 158L256.529 143.1H259.449L262.589 155.8H261.829L265.109 143.1H267.929L271.189 155.8H270.429L273.569 143.1H276.489L272.489 158H269.369L266.069 145.64H266.949L263.649 158H260.529ZM277.118 158V147.12H279.578V149.54L279.378 149.18C279.632 148.367 280.025 147.8 280.558 147.48C281.105 147.16 281.758 147 282.518 147H283.158V149.32H282.218C281.472 149.32 280.872 149.553 280.418 150.02C279.965 150.473 279.738 151.113 279.738 151.94V158H277.118ZM287.899 158.24C287.139 158.24 286.479 158.113 285.919 157.86C285.359 157.607 284.926 157.247 284.619 156.78C284.312 156.3 284.159 155.747 284.159 155.12C284.159 154.52 284.292 153.987 284.559 153.52C284.826 153.04 285.239 152.64 285.799 152.32C286.359 152 287.066 151.773 287.919 151.64L291.479 151.06V153.06L288.419 153.58C287.899 153.673 287.512 153.84 287.259 154.08C287.006 154.32 286.879 154.633 286.879 155.02C286.879 155.393 287.019 155.693 287.299 155.92C287.592 156.133 287.952 156.24 288.379 156.24C288.926 156.24 289.406 156.127 289.819 155.9C290.246 155.66 290.572 155.333 290.799 154.92C291.039 154.507 291.159 154.053 291.159 153.56V150.76C291.159 150.293 290.972 149.907 290.599 149.6C290.239 149.28 289.759 149.12 289.159 149.12C288.599 149.12 288.099 149.273 287.659 149.58C287.232 149.873 286.919 150.267 286.719 150.76L284.579 149.72C284.792 149.147 285.126 148.653 285.579 148.24C286.046 147.813 286.592 147.48 287.219 147.24C287.846 147 288.526 146.88 289.259 146.88C290.152 146.88 290.939 147.047 291.619 147.38C292.299 147.7 292.826 148.153 293.199 148.74C293.586 149.313 293.779 149.987 293.779 150.76V158H291.299V156.14L291.859 156.1C291.579 156.567 291.246 156.96 290.859 157.28C290.472 157.587 290.032 157.827 289.539 158C289.046 158.16 288.499 158.24 287.899 158.24ZM296.2 162V147.12H298.66V149.28L298.42 148.74C298.794 148.153 299.3 147.7 299.94 147.38C300.58 147.047 301.32 146.88 302.16 146.88C303.187 146.88 304.114 147.133 304.94 147.64C305.767 148.147 306.42 148.827 306.9 149.68C307.394 150.533 307.64 151.493 307.64 152.56C307.64 153.613 307.4 154.573 306.92 155.44C306.44 156.307 305.787 156.993 304.96 157.5C304.134 157.993 303.194 158.24 302.14 158.24C301.354 158.24 300.627 158.087 299.96 157.78C299.307 157.46 298.787 157.007 298.4 156.42L298.82 155.9V162H296.2ZM301.84 155.84C302.44 155.84 302.974 155.7 303.44 155.42C303.907 155.14 304.267 154.753 304.52 154.26C304.787 153.767 304.92 153.2 304.92 152.56C304.92 151.92 304.787 151.36 304.52 150.88C304.267 150.387 303.907 150 303.44 149.72C302.974 149.427 302.44 149.28 301.84 149.28C301.267 149.28 300.747 149.42 300.28 149.7C299.827 149.98 299.467 150.373 299.2 150.88C298.947 151.373 298.82 151.933 298.82 152.56C298.82 153.2 298.947 153.767 299.2 154.26C299.467 154.753 299.827 155.14 300.28 155.42C300.747 155.7 301.267 155.84 301.84 155.84ZM314.513 162.42C314.219 162.42 313.933 162.393 313.653 162.34C313.373 162.3 313.119 162.227 312.893 162.12V159.92C313.066 159.96 313.273 160 313.513 160.04C313.766 160.08 313.999 160.1 314.213 160.1C314.813 160.1 315.246 159.96 315.513 159.68C315.793 159.4 316.039 159.033 316.253 158.58L316.973 156.9L316.933 159.1L312.193 147.12H315.013L318.333 155.96H317.333L320.633 147.12H323.473L318.733 159.1C318.453 159.807 318.113 160.407 317.713 160.9C317.313 161.393 316.846 161.767 316.313 162.02C315.793 162.287 315.193 162.42 314.513 162.42ZM330.036 158.24C328.969 158.24 327.996 157.993 327.116 157.5C326.249 157.007 325.556 156.333 325.036 155.48C324.529 154.627 324.276 153.653 324.276 152.56C324.276 151.467 324.529 150.493 325.036 149.64C325.556 148.787 326.249 148.113 327.116 147.62C327.983 147.127 328.956 146.88 330.036 146.88C331.103 146.88 332.069 147.127 332.936 147.62C333.803 148.113 334.489 148.787 334.996 149.64C335.516 150.48 335.776 151.453 335.776 152.56C335.776 153.653 335.516 154.627 334.996 155.48C334.476 156.333 333.783 157.007 332.916 157.5C332.049 157.993 331.089 158.24 330.036 158.24ZM330.036 155.84C330.623 155.84 331.136 155.7 331.576 155.42C332.029 155.14 332.383 154.753 332.636 154.26C332.903 153.753 333.036 153.187 333.036 152.56C333.036 151.92 332.903 151.36 332.636 150.88C332.383 150.387 332.029 150 331.576 149.72C331.136 149.427 330.623 149.28 330.036 149.28C329.436 149.28 328.909 149.427 328.456 149.72C328.003 150 327.643 150.387 327.376 150.88C327.123 151.36 326.996 151.92 326.996 152.56C326.996 153.187 327.123 153.753 327.376 154.26C327.643 154.753 328.003 155.14 328.456 155.42C328.909 155.7 329.436 155.84 330.036 155.84ZM341.643 158.24C340.803 158.24 340.07 158.053 339.443 157.68C338.83 157.307 338.356 156.787 338.023 156.12C337.703 155.453 337.543 154.673 337.543 153.78V147.12H340.163V153.56C340.163 154.013 340.25 154.413 340.423 154.76C340.61 155.093 340.87 155.36 341.203 155.56C341.55 155.747 341.936 155.84 342.363 155.84C342.79 155.84 343.17 155.747 343.503 155.56C343.836 155.36 344.096 155.087 344.283 154.74C344.47 154.393 344.563 153.98 344.563 153.5V147.12H347.183V158H344.703V155.86L344.923 156.24C344.67 156.907 344.25 157.407 343.663 157.74C343.09 158.073 342.416 158.24 341.643 158.24ZM349.618 158V147.12H352.078V149.54L351.878 149.18C352.132 148.367 352.525 147.8 353.058 147.48C353.605 147.16 354.258 147 355.018 147H355.658V149.32H354.718C353.972 149.32 353.372 149.553 352.918 150.02C352.465 150.473 352.238 151.113 352.238 151.94V158H349.618ZM367.934 158.24C366.867 158.24 365.88 158.047 364.974 157.66C364.067 157.273 363.274 156.733 362.594 156.04C361.914 155.347 361.38 154.533 360.994 153.6C360.62 152.667 360.434 151.647 360.434 150.54C360.434 149.433 360.614 148.413 360.974 147.48C361.347 146.533 361.867 145.72 362.534 145.04C363.214 144.347 364.007 143.813 364.914 143.44C365.82 143.053 366.807 142.86 367.874 142.86C368.94 142.86 369.894 143.04 370.734 143.4C371.587 143.76 372.307 144.24 372.894 144.84C373.48 145.427 373.9 146.073 374.154 146.78L371.734 147.94C371.454 147.167 370.98 146.54 370.314 146.06C369.647 145.58 368.834 145.34 367.874 145.34C366.94 145.34 366.114 145.56 365.394 146C364.687 146.44 364.134 147.047 363.734 147.82C363.347 148.593 363.154 149.5 363.154 150.54C363.154 151.58 363.354 152.493 363.754 153.28C364.167 154.053 364.734 154.66 365.454 155.1C366.174 155.54 367 155.76 367.934 155.76C368.694 155.76 369.394 155.613 370.034 155.32C370.674 155.013 371.187 154.587 371.574 154.04C371.96 153.48 372.154 152.82 372.154 152.06V150.92L373.394 152H367.874V149.7H374.874V151.2C374.874 152.347 374.68 153.36 374.294 154.24C373.907 155.12 373.38 155.86 372.714 156.46C372.06 157.047 371.32 157.493 370.494 157.8C369.667 158.093 368.814 158.24 367.934 158.24ZM376.806 158V147.12H379.426V158H376.806ZM376.806 145.9V143.1H379.426V145.9H376.806ZM383.105 158V149.46H381.185V147.12H383.105V146.76C383.105 145.933 383.272 145.233 383.605 144.66C383.952 144.073 384.432 143.627 385.045 143.32C385.658 143.013 386.385 142.86 387.225 142.86C387.385 142.86 387.558 142.873 387.745 142.9C387.945 142.913 388.112 142.933 388.245 142.96V145.22C388.112 145.193 387.985 145.18 387.865 145.18C387.758 145.167 387.658 145.16 387.565 145.16C386.978 145.16 386.525 145.293 386.205 145.56C385.885 145.813 385.725 146.213 385.725 146.76V147.12H388.145V149.46H385.725V158H383.105ZM395.418 158.12C394.192 158.12 393.238 157.787 392.558 157.12C391.892 156.44 391.558 155.487 391.558 154.26V149.46H389.678V147.12H389.878C390.412 147.12 390.825 146.98 391.118 146.7C391.412 146.42 391.558 146.013 391.558 145.48V144.64H394.178V147.12H396.678V149.46H394.178V154.12C394.178 154.48 394.238 154.787 394.358 155.04C394.492 155.293 394.692 155.487 394.958 155.62C395.238 155.753 395.592 155.82 396.018 155.82C396.112 155.82 396.218 155.813 396.338 155.8C396.472 155.787 396.598 155.773 396.718 155.76V158C396.532 158.027 396.318 158.053 396.078 158.08C395.838 158.107 395.618 158.12 395.418 158.12ZM402.495 158V143.1H408.775C409.761 143.1 410.601 143.273 411.295 143.62C412.001 143.953 412.541 144.433 412.915 145.06C413.301 145.673 413.495 146.42 413.495 147.3C413.495 147.98 413.308 148.62 412.935 149.22C412.575 149.807 411.995 150.293 411.195 150.68V149.42C411.928 149.7 412.508 150.047 412.935 150.46C413.361 150.873 413.661 151.333 413.835 151.84C414.008 152.347 414.095 152.88 414.095 153.44C414.095 154.867 413.621 155.987 412.675 156.8C411.741 157.6 410.441 158 408.775 158H402.495ZM405.215 155.6H409.055C409.761 155.6 410.321 155.407 410.735 155.02C411.161 154.62 411.375 154.093 411.375 153.44C411.375 152.787 411.161 152.26 410.735 151.86C410.321 151.46 409.761 151.26 409.055 151.26H405.215V155.6ZM405.215 148.88H408.915C409.475 148.88 409.921 148.72 410.255 148.4C410.588 148.067 410.755 147.64 410.755 147.12C410.755 146.6 410.588 146.187 410.255 145.88C409.921 145.573 409.475 145.42 408.915 145.42H405.215V148.88ZM421.423 158.24C420.356 158.24 419.383 157.993 418.503 157.5C417.636 157.007 416.943 156.333 416.423 155.48C415.916 154.627 415.663 153.653 415.663 152.56C415.663 151.467 415.916 150.493 416.423 149.64C416.943 148.787 417.636 148.113 418.503 147.62C419.369 147.127 420.343 146.88 421.423 146.88C422.489 146.88 423.456 147.127 424.323 147.62C425.189 148.113 425.876 148.787 426.383 149.64C426.903 150.48 427.163 151.453 427.163 152.56C427.163 153.653 426.903 154.627 426.383 155.48C425.863 156.333 425.169 157.007 424.303 157.5C423.436 157.993 422.476 158.24 421.423 158.24ZM421.423 155.84C422.009 155.84 422.523 155.7 422.963 155.42C423.416 155.14 423.769 154.753 424.023 154.26C424.289 153.753 424.423 153.187 424.423 152.56C424.423 151.92 424.289 151.36 424.023 150.88C423.769 150.387 423.416 150 422.963 149.72C422.523 149.427 422.009 149.28 421.423 149.28C420.823 149.28 420.296 149.427 419.843 149.72C419.389 150 419.029 150.387 418.763 150.88C418.509 151.36 418.383 151.92 418.383 152.56C418.383 153.187 418.509 153.753 418.763 154.26C419.029 154.753 419.389 155.14 419.843 155.42C420.296 155.7 420.823 155.84 421.423 155.84ZM427.779 158L431.579 152.54L427.759 147.12H430.839L433.819 151.52H432.439L435.419 147.12H438.479L434.679 152.54L438.459 158H435.399L432.459 153.62H433.799L430.859 158H427.779Z" fill="#242424"/>
<path d="M320.333 218.667H373.667M320.333 218.667C316.651 218.667 313.667 215.682 313.667 212V208.667C313.667 204.985 316.651 202 320.333 202H373.667C377.349 202 380.333 204.985 380.333 208.667V212C380.333 215.682 377.349 218.667 373.667 218.667M320.333 218.667L320.333 248.667C320.333 252.349 323.318 255.333 327 255.333H367C370.682 255.333 373.667 252.349 373.667 248.667V218.667M347 202H360.333C364.015 202 367 199.015 367 195.333C367 191.652 364.015 188.667 360.333 188.667C352.97 188.667 347 194.636 347 202ZM347 202H333.667C329.985 202 327 199.015 327 195.333C327 191.652 329.985 188.667 333.667 188.667C341.03 188.667 347 194.636 347 202ZM347 202V255.333" stroke="#CD1315" stroke-width="1.5" stroke-linecap="round"/>
<path d="M346 385.774L351.774 380L346 374.226L340.226 380L346 385.774ZM345 281.5V283.963H347V281.5H345ZM345 288.888V293.812H347V288.888H345ZM345 298.737V303.662H347V298.737H345ZM345 308.587V313.512H347V308.587H345ZM345 318.437V323.362H347V318.437H345ZM345 328.287V333.212H347V328.287H345ZM345 338.137V343.062H347V338.137H345ZM345 347.987V352.912H347V347.987H345ZM345 357.838V362.763H347V357.838H345ZM345 367.688V372.613H347V367.688H345ZM345 377.538V380H347V377.538H345Z" fill="#242424"/>
<path d="M272.286 429L277.426 414.1H280.946L286.086 429H283.126L282.066 425.8H276.306L275.226 429H272.286ZM277.086 423.4H281.286L278.806 415.98H279.566L277.086 423.4ZM292.194 429.24C291.141 429.24 290.201 428.993 289.374 428.5C288.547 427.993 287.894 427.307 287.414 426.44C286.934 425.573 286.694 424.613 286.694 423.56C286.694 422.493 286.934 421.533 287.414 420.68C287.894 419.827 288.547 419.147 289.374 418.64C290.214 418.133 291.147 417.88 292.174 417.88C293.001 417.88 293.734 418.047 294.374 418.38C295.027 418.7 295.541 419.153 295.914 419.74L295.514 420.28V413.86H298.134V429H295.654V426.9L295.934 427.42C295.561 428.007 295.041 428.46 294.374 428.78C293.707 429.087 292.981 429.24 292.194 429.24ZM292.474 426.84C293.074 426.84 293.601 426.7 294.054 426.42C294.507 426.14 294.861 425.753 295.114 425.26C295.381 424.767 295.514 424.2 295.514 423.56C295.514 422.933 295.381 422.373 295.114 421.88C294.861 421.373 294.507 420.98 294.054 420.7C293.601 420.42 293.074 420.28 292.474 420.28C291.887 420.28 291.361 420.427 290.894 420.72C290.427 421 290.061 421.387 289.794 421.88C289.541 422.36 289.414 422.92 289.414 423.56C289.414 424.2 289.541 424.767 289.794 425.26C290.061 425.753 290.427 426.14 290.894 426.42C291.361 426.7 291.887 426.84 292.474 426.84ZM305.632 429.24C304.578 429.24 303.638 428.993 302.812 428.5C301.985 427.993 301.332 427.307 300.852 426.44C300.372 425.573 300.132 424.613 300.132 423.56C300.132 422.493 300.372 421.533 300.852 420.68C301.332 419.827 301.985 419.147 302.812 418.64C303.652 418.133 304.585 417.88 305.612 417.88C306.438 417.88 307.172 418.047 307.812 418.38C308.465 418.7 308.978 419.153 309.352 419.74L308.952 420.28V413.86H311.572V429H309.092V426.9L309.372 427.42C308.998 428.007 308.478 428.46 307.812 428.78C307.145 429.087 306.418 429.24 305.632 429.24ZM305.912 426.84C306.512 426.84 307.038 426.7 307.492 426.42C307.945 426.14 308.298 425.753 308.552 425.26C308.818 424.767 308.952 424.2 308.952 423.56C308.952 422.933 308.818 422.373 308.552 421.88C308.298 421.373 307.945 420.98 307.492 420.7C307.038 420.42 306.512 420.28 305.912 420.28C305.325 420.28 304.798 420.427 304.332 420.72C303.865 421 303.498 421.387 303.232 421.88C302.978 422.36 302.852 422.92 302.852 423.56C302.852 424.2 302.978 424.767 303.232 425.26C303.498 425.753 303.865 426.14 304.332 426.42C304.798 426.7 305.325 426.84 305.912 426.84ZM320.864 429.24C320.104 429.24 319.444 429.113 318.884 428.86C318.324 428.607 317.89 428.247 317.584 427.78C317.277 427.3 317.124 426.747 317.124 426.12C317.124 425.52 317.257 424.987 317.524 424.52C317.79 424.04 318.204 423.64 318.764 423.32C319.324 423 320.03 422.773 320.884 422.64L324.444 422.06V424.06L321.384 424.58C320.864 424.673 320.477 424.84 320.224 425.08C319.97 425.32 319.844 425.633 319.844 426.02C319.844 426.393 319.984 426.693 320.264 426.92C320.557 427.133 320.917 427.24 321.344 427.24C321.89 427.24 322.37 427.127 322.784 426.9C323.21 426.66 323.537 426.333 323.764 425.92C324.004 425.507 324.124 425.053 324.124 424.56V421.76C324.124 421.293 323.937 420.907 323.564 420.6C323.204 420.28 322.724 420.12 322.124 420.12C321.564 420.12 321.064 420.273 320.624 420.58C320.197 420.873 319.884 421.267 319.684 421.76L317.544 420.72C317.757 420.147 318.09 419.653 318.544 419.24C319.01 418.813 319.557 418.48 320.184 418.24C320.81 418 321.49 417.88 322.224 417.88C323.117 417.88 323.904 418.047 324.584 418.38C325.264 418.7 325.79 419.153 326.164 419.74C326.55 420.313 326.744 420.987 326.744 421.76V429H324.264V427.14L324.824 427.1C324.544 427.567 324.21 427.96 323.824 428.28C323.437 428.587 322.997 428.827 322.504 429C322.01 429.16 321.464 429.24 320.864 429.24ZM340 429.24C338.933 429.24 337.947 429.047 337.04 428.66C336.133 428.273 335.34 427.733 334.66 427.04C333.98 426.347 333.447 425.533 333.06 424.6C332.687 423.667 332.5 422.647 332.5 421.54C332.5 420.433 332.68 419.413 333.04 418.48C333.413 417.533 333.933 416.72 334.6 416.04C335.28 415.347 336.073 414.813 336.98 414.44C337.887 414.053 338.873 413.86 339.94 413.86C341.007 413.86 341.96 414.04 342.8 414.4C343.653 414.76 344.373 415.24 344.96 415.84C345.547 416.427 345.967 417.073 346.22 417.78L343.8 418.94C343.52 418.167 343.047 417.54 342.38 417.06C341.713 416.58 340.9 416.34 339.94 416.34C339.007 416.34 338.18 416.56 337.46 417C336.753 417.44 336.2 418.047 335.8 418.82C335.413 419.593 335.22 420.5 335.22 421.54C335.22 422.58 335.42 423.493 335.82 424.28C336.233 425.053 336.8 425.66 337.52 426.1C338.24 426.54 339.067 426.76 340 426.76C340.76 426.76 341.46 426.613 342.1 426.32C342.74 426.013 343.253 425.587 343.64 425.04C344.027 424.48 344.22 423.82 344.22 423.06V421.92L345.46 423H339.94V420.7H346.94V422.2C346.94 423.347 346.747 424.36 346.36 425.24C345.973 426.12 345.447 426.86 344.78 427.46C344.127 428.047 343.387 428.493 342.56 428.8C341.733 429.093 340.88 429.24 340 429.24ZM348.872 429V418.12H351.492V429H348.872ZM348.872 416.9V414.1H351.492V416.9H348.872ZM355.171 429V420.46H353.251V418.12H355.171V417.76C355.171 416.933 355.338 416.233 355.671 415.66C356.018 415.073 356.498 414.627 357.111 414.32C357.725 414.013 358.451 413.86 359.291 413.86C359.451 413.86 359.625 413.873 359.811 413.9C360.011 413.913 360.178 413.933 360.311 413.96V416.22C360.178 416.193 360.051 416.18 359.931 416.18C359.825 416.167 359.725 416.16 359.631 416.16C359.045 416.16 358.591 416.293 358.271 416.56C357.951 416.813 357.791 417.213 357.791 417.76V418.12H360.211V420.46H357.791V429H355.171ZM367.485 429.12C366.258 429.12 365.305 428.787 364.625 428.12C363.958 427.44 363.625 426.487 363.625 425.26V420.46H361.745V418.12H361.945C362.478 418.12 362.891 417.98 363.185 417.7C363.478 417.42 363.625 417.013 363.625 416.48V415.64H366.245V418.12H368.745V420.46H366.245V425.12C366.245 425.48 366.305 425.787 366.425 426.04C366.558 426.293 366.758 426.487 367.025 426.62C367.305 426.753 367.658 426.82 368.085 426.82C368.178 426.82 368.285 426.813 368.405 426.8C368.538 426.787 368.665 426.773 368.785 426.76V429C368.598 429.027 368.385 429.053 368.145 429.08C367.905 429.107 367.685 429.12 367.485 429.12ZM381.561 429.24C380.494 429.24 379.508 429.047 378.601 428.66C377.708 428.273 376.921 427.733 376.241 427.04C375.574 426.347 375.054 425.533 374.681 424.6C374.308 423.667 374.121 422.647 374.121 421.54C374.121 420.433 374.301 419.413 374.661 418.48C375.034 417.533 375.554 416.72 376.221 416.04C376.901 415.347 377.694 414.813 378.601 414.44C379.508 414.053 380.494 413.86 381.561 413.86C382.628 413.86 383.581 414.04 384.421 414.4C385.274 414.76 385.994 415.24 386.581 415.84C387.168 416.427 387.588 417.073 387.841 417.78L385.401 418.92C385.121 418.173 384.648 417.56 383.981 417.08C383.314 416.587 382.508 416.34 381.561 416.34C380.628 416.34 379.801 416.56 379.081 417C378.374 417.44 377.821 418.047 377.421 418.82C377.034 419.593 376.841 420.5 376.841 421.54C376.841 422.58 377.034 423.493 377.421 424.28C377.821 425.053 378.374 425.66 379.081 426.1C379.801 426.54 380.628 426.76 381.561 426.76C382.508 426.76 383.314 426.52 383.981 426.04C384.648 425.547 385.121 424.927 385.401 424.18L387.841 425.32C387.588 426.027 387.168 426.68 386.581 427.28C385.994 427.867 385.274 428.34 384.421 428.7C383.581 429.06 382.628 429.24 381.561 429.24ZM392.934 429.24C392.174 429.24 391.514 429.113 390.954 428.86C390.394 428.607 389.961 428.247 389.654 427.78C389.347 427.3 389.194 426.747 389.194 426.12C389.194 425.52 389.327 424.987 389.594 424.52C389.861 424.04 390.274 423.64 390.834 423.32C391.394 423 392.101 422.773 392.954 422.64L396.514 422.06V424.06L393.454 424.58C392.934 424.673 392.547 424.84 392.294 425.08C392.041 425.32 391.914 425.633 391.914 426.02C391.914 426.393 392.054 426.693 392.334 426.92C392.627 427.133 392.987 427.24 393.414 427.24C393.961 427.24 394.441 427.127 394.854 426.9C395.281 426.66 395.607 426.333 395.834 425.92C396.074 425.507 396.194 425.053 396.194 424.56V421.76C396.194 421.293 396.007 420.907 395.634 420.6C395.274 420.28 394.794 420.12 394.194 420.12C393.634 420.12 393.134 420.273 392.694 420.58C392.267 420.873 391.954 421.267 391.754 421.76L389.614 420.72C389.827 420.147 390.161 419.653 390.614 419.24C391.081 418.813 391.627 418.48 392.254 418.24C392.881 418 393.561 417.88 394.294 417.88C395.187 417.88 395.974 418.047 396.654 418.38C397.334 418.7 397.861 419.153 398.234 419.74C398.621 420.313 398.814 420.987 398.814 421.76V429H396.334V427.14L396.894 427.1C396.614 427.567 396.281 427.96 395.894 428.28C395.507 428.587 395.067 428.827 394.574 429C394.081 429.16 393.534 429.24 392.934 429.24ZM401.236 429V418.12H403.696V420.54L403.496 420.18C403.749 419.367 404.142 418.8 404.676 418.48C405.222 418.16 405.876 418 406.636 418H407.276V420.32H406.336C405.589 420.32 404.989 420.553 404.536 421.02C404.082 421.473 403.856 422.113 403.856 422.94V429H401.236ZM413.776 429.24C412.723 429.24 411.783 428.993 410.956 428.5C410.129 427.993 409.476 427.307 408.996 426.44C408.516 425.573 408.276 424.613 408.276 423.56C408.276 422.493 408.516 421.533 408.996 420.68C409.476 419.827 410.129 419.147 410.956 418.64C411.796 418.133 412.729 417.88 413.756 417.88C414.583 417.88 415.316 418.047 415.956 418.38C416.609 418.7 417.123 419.153 417.496 419.74L417.096 420.28V413.86H419.716V429H417.236V426.9L417.516 427.42C417.143 428.007 416.623 428.46 415.956 428.78C415.289 429.087 414.563 429.24 413.776 429.24ZM414.056 426.84C414.656 426.84 415.183 426.7 415.636 426.42C416.089 426.14 416.443 425.753 416.696 425.26C416.963 424.767 417.096 424.2 417.096 423.56C417.096 422.933 416.963 422.373 416.696 421.88C416.443 421.373 416.089 420.98 415.636 420.7C415.183 420.42 414.656 420.28 414.056 420.28C413.469 420.28 412.943 420.427 412.476 420.72C412.009 421 411.643 421.387 411.376 421.88C411.123 422.36 410.996 422.92 410.996 423.56C410.996 424.2 411.123 424.767 411.376 425.26C411.643 425.753 412.009 426.14 412.476 426.42C412.943 426.7 413.469 426.84 414.056 426.84Z" fill="#242424"/>
<path d="M366.5 457.667H326.5C320.977 457.667 316.5 462.144 316.5 467.667V494.333C316.5 499.856 320.977 504.333 326.5 504.333H366.5C372.023 504.333 376.5 499.856 376.5 494.333V467.667C376.5 462.144 372.023 457.667 366.5 457.667Z" stroke="#CD1315" stroke-width="2" stroke-linecap="round" stroke-linejoin="round"/>
<path d="M329.833 494.333L339.833 484.333L349.833 494.333M333.167 484.333C330.537 484.333 326.5 482.093 326.5 479.333C326.5 476.573 328.87 474.333 331.5 474.333C335.26 474.267 338.423 478.233 339.833 484.333C341.243 478.233 344.407 474.267 348.167 474.333C350.797 474.333 353.167 476.573 353.167 479.333C353.167 482.093 349.13 484.333 346.5 484.333H333.167Z" stroke="#CD1315" stroke-width="2" stroke-linecap="round" stroke-linejoin="round"/>
<defs>
<filter id="filter0_d_1025_13057" x="0" y="0" width="720" height="657" filterUnits="userSpaceOnUse" color-interpolation-filters="sRGB">
<feFlood flood-opacity="0" result="BackgroundImageFix"/>
<feColorMatrix in="SourceAlpha" type="matrix" values="0 0 0 0 0 0 0 0 0 0 0 0 0 0 0 0 0 0 127 0" result="hardAlpha"/>
<feOffset/>
<feGaussianBlur stdDeviation="10"/>
<feComposite in2="hardAlpha" operator="out"/>
<feColorMatrix type="matrix" values="0 0 0 0 0 0 0 0 0 0 0 0 0 0 0 0 0 0 0.02 0"/>
<feBlend mode="normal" in2="BackgroundImageFix" result="effect1_dropShadow_1025_13057"/>
<feBlend mode="normal" in="SourceGraphic" in2="effect1_dropShadow_1025_13057" result="shape"/>
</filter>
</defs>
</svg>
