<svg width="122" height="93" viewBox="0 0 122 93" fill="none" xmlns="http://www.w3.org/2000/svg">
<path d="M92.8708 12.9613C91.7766 8.96782 100.602 5.54333 102.919 8.75929C103.241 8.30208 104.432 8.02436 104.979 8.16461C105.525 8.30487 105.984 8.6555 106.433 8.99492C107.049 9.46898 107.688 9.95987 108.066 10.6415C108.448 11.3203 108.506 12.246 107.994 12.8351C107.587 13.3035 106.388 13.6065 105.777 13.7299C105.351 13.8169 104.993 13.887 104.684 13.9375C104.404 13.5337 104.275 13.0441 104.32 12.5546C104.113 12.6947 103.939 12.879 103.811 13.0943C103.683 13.3097 103.604 13.5507 103.58 13.8C103.572 13.9038 107.024 26.6192 107.024 26.6192C106.609 26.8556 106.173 27.0519 105.721 27.2055C104.827 25.8377 104.142 24.3439 103.69 22.7735C103.586 23.8236 103.599 24.882 103.729 25.9292C103.798 26.5164 103.897 27.0997 104.026 27.6768C99.9236 28.5632 93.7534 28.2714 91.069 24.5014C91.0686 24.4858 91.0681 24.4702 91.0677 24.4546C91.0656 24.3058 91.0119 24.1623 90.9158 24.0488C90.8196 23.9353 90.6871 23.8587 90.5408 23.8323C90.3945 23.8059 90.2435 23.8312 90.1138 23.9039C89.9841 23.9766 89.8837 24.0922 89.8297 24.2309C89.7646 24.3972 89.7047 24.5412 89.6512 24.6557C88.8694 21.8562 89.881 18.6163 92.8708 12.9613Z" fill="#242424"/>
<path d="M85.8898 79.9136V80.0444C85.8847 80.0009 85.8847 79.957 85.8898 79.9136Z" fill="#242424"/>
<path d="M89.9072 57.313C90.0115 57.2847 90.1177 57.2641 90.225 57.2512C90.1019 57.2713 89.9959 57.2919 89.9072 57.313Z" fill="#242424"/>
<path d="M89.8142 57.337C89.8426 57.329 89.8743 57.321 89.9079 57.313C89.8766 57.3212 89.8464 57.3272 89.8142 57.337Z" fill="#242424"/>
<path d="M119.495 92.9994H104.458C104.243 92.828 104.094 92.588 104.036 92.3195C103.977 92.0511 104.012 91.7707 104.136 91.5253C104.547 90.5822 103.742 89.7204 103.742 89.7204C103.468 89.3999 103.278 89.0169 103.189 88.6052C103.099 88.1936 103.112 87.7661 103.226 87.3607C103.625 85.9678 102.064 82.0361 102.064 82.0361C102.064 82.0361 101.222 87.1129 100.191 92.9994H85.8899C85.6504 92.5909 85.524 92.1258 85.524 91.6521C85.524 91.1784 85.6504 90.7133 85.8899 90.3048C86.7233 88.8902 85.8899 88.6189 85.8899 88.6189C85.8899 88.6189 85.0565 87.036 85.8899 85.8866C86.7233 84.7373 85.8899 80.0442 85.8899 80.0442C85.9213 80.2517 86.1587 79.8744 86.5243 79.0834C87.0808 77.8799 87.9313 75.7157 88.7905 73.2031C89.4048 71.4099 90.0241 69.4368 90.5416 67.5077H90.5429C90.6786 67.0009 90.8071 66.4987 90.9285 66.0012C91.166 65.0253 91.3695 64.0771 91.524 63.1868C91.8594 61.269 91.9699 59.6216 91.7124 58.5502C91.4989 57.6586 91.0315 57.1669 90.2251 57.2512C90.6572 57.1795 91.2903 57.1116 92.0704 57.0474C92.2111 57.0361 92.3568 57.0248 92.5076 57.0122C98.3263 56.5721 110.81 56.3193 110.81 56.3193L114.634 63.1742L119.477 71.8576C119.477 71.8576 119.345 83.5062 119.495 92.9994Z" fill="#242424"/>
<path d="M103.445 26.6913L94.6353 24.8206L92.886 28.3453L86.9954 31.7593C86.9954 31.7593 90.7925 47.3011 90.7708 49.487C90.7158 55.0366 81.8457 67.4771 88.5456 66.52C95.2455 65.563 96.6064 61.5542 98.7573 62.1881C100.697 62.7597 103.066 65.3028 104.651 63.484C106.237 61.6652 106.795 63.7655 107.798 63.8381C108.275 63.8725 107.988 61.5414 109.187 63.9105C110.385 66.2796 116.743 63.0905 114.588 60.9335C111 57.341 110.27 30.8586 110.27 30.8586L106.275 29.628L103.445 26.6913Z" fill="#E6E6E6"/>
<path d="M86.8287 83.1326C87.1827 82.71 87.358 82.1659 87.3173 81.6159C87.2766 81.066 87.0232 80.5536 86.6109 80.1879C86.526 80.1148 86.4351 80.049 86.3393 79.991L87.8123 72.7541L84.407 70.7139L83.4599 80.8459C83.2503 81.2623 83.1844 81.7364 83.2723 82.1943C83.3602 82.6521 83.5971 83.068 83.9459 83.3769C84.1461 83.5508 84.3786 83.6835 84.63 83.7675C84.8814 83.8514 85.1469 83.885 85.4112 83.8662C85.6756 83.8475 85.9337 83.7768 86.1708 83.6582C86.4078 83.5396 86.6193 83.3754 86.793 83.175C86.8051 83.161 86.817 83.1469 86.8287 83.1326Z" fill="#A0616A"/>
<path d="M97.4019 44.9864C97.3806 44.7538 97.0841 44.6482 96.6733 44.5023C96.2607 44.375 95.8686 44.1891 95.5088 43.9502C94.5993 43.2925 94.9573 42.6046 95.4523 41.6539C95.549 41.4691 95.6495 41.2767 95.7437 41.0767C96.0239 40.4844 95.5779 38.041 94.4159 33.8131C94.0579 32.5116 94.0592 31.5923 93.8117 30.9824C93.5655 30.3725 93.0718 30.0719 91.7264 30.0091C90.1002 29.9269 88.5078 30.4935 87.2983 31.5848C87.2656 31.6137 87.2317 31.6451 87.1991 31.6753C87.1375 31.7332 87.0772 31.7923 87.0182 31.8526C85.8996 32.9791 85.2595 34.4949 85.2318 36.083L85.2256 36.3534L84.9479 49.2709L84.1678 60.6064L83.0925 76.2214L83.889 76.2604L87.0672 76.4188L87.4528 76.4376L88.3673 72.5971L89.4677 67.9756L89.8722 66.2779L91.1272 61.0113L91.7126 58.5503L92.0706 57.0476L92.2163 56.4339L92.9273 53.451C92.9436 53.3881 94.5792 46.9281 96.4648 45.8479C97.1683 45.4454 97.422 45.2115 97.4019 44.9864Z" fill="#E6E6E6"/>
<path d="M118.558 83.0557C118.16 82.6737 117.928 82.1515 117.909 81.6004C117.891 81.0493 118.088 80.5126 118.458 80.1046C118.535 80.0229 118.618 79.9477 118.707 79.8797L116.466 72.843L119.633 70.4485L121.662 80.4201C121.915 80.8115 122.031 81.2758 121.993 81.7405C121.954 82.2052 121.764 82.6441 121.45 82.9887C121.27 83.1831 121.053 83.34 120.812 83.4506C120.571 83.5611 120.31 83.623 120.046 83.6327C119.781 83.6425 119.517 83.6 119.268 83.5076C119.02 83.4151 118.792 83.2746 118.598 83.0941C118.584 83.0815 118.571 83.0687 118.558 83.0557Z" fill="#A0616A"/>
<path d="M120.107 67.7867C120.107 67.7867 117.637 59.0879 118.39 58.1462C119.143 57.2045 116.919 57.0206 117.877 55.2668C118.836 53.5129 117.513 53.2196 117.513 53.2196L116.795 49.1872L115.511 39.2826L115.472 38.988L115.099 36.1064C114.995 35.2834 114.726 34.4899 114.308 33.7733C113.891 33.0567 113.333 32.4317 112.668 31.9359C112.634 31.9098 112.6 31.8849 112.565 31.8599C112.407 31.746 112.246 31.6405 112.081 31.5433C110.849 30.8157 109.402 30.5406 107.989 30.7653C105.327 31.1803 106.155 32.1741 105.724 34.8365C105.022 39.1654 104.84 41.6421 105.182 42.2016C105.297 42.3901 105.418 42.5703 105.534 42.7434C106.128 43.6366 106.558 44.281 105.724 45.0341C105.391 45.3094 105.022 45.5359 104.625 45.7069C104.233 45.8969 103.95 46.0333 103.953 46.2669C103.958 46.4932 104.235 46.6976 104.977 47.0217C105.876 47.4157 106.842 48.9051 107.633 50.4267C108.261 51.6531 108.821 52.9132 109.31 54.2012L116.11 73.3448L117.219 76.4668L117.601 76.4063L120.743 75.9077L121.531 75.7828L120.107 67.7867Z" fill="#E6E6E6"/>
<path d="M99.728 24.6884C103.698 24.6884 106.915 21.467 106.915 17.4933C106.915 13.5195 103.698 10.2981 99.728 10.2981C95.7585 10.2981 92.5405 13.5195 92.5405 17.4933C92.5405 21.467 95.7585 24.6884 99.728 24.6884Z" fill="#A0616A"/>
<path d="M88.9477 13.5223C87.8535 9.52886 96.6785 6.10436 98.9959 9.32033C99.3182 8.86311 100.509 8.5854 101.055 8.72565C101.602 8.8659 102.061 9.21654 102.51 9.55596C103.126 10.03 103.765 10.5209 104.143 11.2025C104.524 11.8814 104.583 12.8071 104.07 13.3961C103.664 13.8646 102.465 14.1675 101.854 14.2909C101.428 14.3779 101.069 14.448 100.761 14.4985C100.481 14.0947 100.352 13.6051 100.397 13.1156C100.189 13.2557 100.016 13.44 99.8877 13.6554C99.7598 13.8707 99.6811 14.1117 99.6572 14.3611C99.6488 14.4648 103.101 27.1803 103.101 27.1803C102.686 27.4166 102.25 27.6129 101.798 27.7665C100.904 26.3988 100.219 24.9049 99.7665 23.3345C99.6624 24.3846 99.6756 25.443 99.8057 26.4902C99.8749 27.0774 99.9741 27.6607 100.103 28.2378C96.0005 29.1242 89.8303 28.8325 87.1459 25.0624C87.1455 25.0469 87.145 25.0312 87.1446 25.0156C87.1425 24.8668 87.0888 24.7234 86.9927 24.6098C86.8965 24.4963 86.764 24.4198 86.6177 24.3933C86.4714 24.3669 86.3204 24.3922 86.1907 24.4649C86.061 24.5376 85.9606 24.6532 85.9066 24.7919C85.8415 24.9582 85.7816 25.1022 85.7281 25.2167C84.9463 22.4172 85.9579 19.1774 88.9477 13.5223Z" fill="#242424"/>
<path d="M25.8448 8.75952C25.7113 9.07109 21.5932 9.03771 21.4046 9.31515C19.9504 11.4571 25.1924 20.5705 23.7383 22.7152L23.5357 22.9569C24.0101 22.7381 24.4658 22.4807 24.8983 22.1874C24.9371 21.3095 24.976 20.4288 25.0176 19.5509C25.4532 20.1087 25.8047 20.7274 26.0611 21.3873C26.3996 21.1484 26.6774 20.7055 28.1286 19.8343C28.7161 19.1882 29.3933 18.6301 30.1396 18.1771L25.8448 8.75952Z" fill="#242424"/>
<path d="M28.835 26.314C28.3806 26.0176 27.8621 25.834 27.3226 25.7784C26.7831 25.7229 26.2381 25.7969 25.7329 25.9943C25.2277 26.1918 24.7768 26.507 24.4176 26.9139C24.0585 27.3207 23.8014 27.8074 23.6678 28.3336L17.4098 44.6569L6.65299 38.5435C6.60576 37.8408 6.33744 37.1711 5.88651 36.6305C5.43558 36.0899 4.82521 35.7061 4.14295 35.5342C3.46068 35.3624 2.74157 35.4112 2.08875 35.6738C1.43592 35.9363 0.882936 36.3991 0.50909 36.9957C0.135243 37.5924 -0.0402537 38.2922 0.00776996 38.9948C0.0557937 39.6975 0.324871 40.3669 0.776409 40.907C1.22795 41.447 1.83875 41.8301 2.52121 42.0012C3.20367 42.1723 3.92272 42.1227 4.57525 41.8594C6.84054 44.2797 16.6614 54.2029 20.7272 50.3257C24.1447 47.0667 29.0765 34.4359 30.2637 30.0742C30.4538 29.3767 30.418 28.6369 30.1612 27.9611C29.9045 27.2854 29.4401 26.7086 28.835 26.314Z" fill="#FFB6B6"/>
<path d="M17.0842 51.0095L19.0591 59.9451L33.4998 61.2526L34.8269 53.4722L17.0842 51.0095Z" fill="#FFB6B6"/>
<path d="M39.1426 73.9238C39.136 74.0519 39.1281 74.1786 39.1189 74.3067C38.9804 76.1582 38.8221 78.2936 38.6506 80.6336C38.3801 84.3471 38.0781 88.5756 37.7733 92.9996H7.48389L13.3582 75.3241C13.3582 75.3241 15.7301 74.0168 14.5226 71.8207C13.315 69.6246 15.691 71.3746 15.7131 68.2382C15.7352 65.1019 17.8644 61.7652 17.8644 61.7652L18.214 57.0164L18.4132 57.0203L34.176 57.2831L34.4635 57.2884L34.9477 61.365C37.8872 64.8667 39.3869 69.3563 39.1426 73.9238Z" fill="#242424"/>
<path d="M26.097 21.9835L33.2848 21.6128L36.6234 26.8938C36.6234 26.8938 42.9049 27.9451 42.4695 35.3551C42.0341 42.765 34.8267 49.2673 34.8267 49.2673L35.1348 48.2099L34.5997 49.7405L34.6684 50.5999L35.3983 51.51L35.4735 52.4513L34.8267 53.9405C34.9108 54.0755 34.9555 54.2313 34.9556 54.3904C34.9557 54.5494 34.9112 54.7053 34.8273 54.8404C34.7434 54.9754 34.6233 55.0842 34.4808 55.1545C34.3382 55.2247 34.1788 55.2535 34.0207 55.2376L23.6349 54.1957C23.3984 53.5445 23.2087 52.7654 22.2609 54.0624L21.2825 53.9675L17.2155 53.5731L16.9761 52.7001C16.8401 52.2041 16.8189 51.6835 16.9141 51.1781C17.0094 50.6726 17.2185 50.1955 17.5257 49.7832C17.1724 48.6758 17.2649 47.4741 17.7836 46.434L17.803 46.395L18.2349 46.0346C18.2349 46.0346 13.5098 38.9281 18.9341 33.5756L21.1112 29.8706L23.5471 26.8954L26.097 21.9835Z" fill="#CD1315"/>
<path d="M27.8861 18.8662C31.6505 18.8662 34.7021 15.8112 34.7021 12.0428C34.7021 8.27439 31.6505 5.21948 27.8861 5.21948C24.1217 5.21948 21.0701 8.27439 21.0701 12.0428C21.0701 15.8112 24.1217 18.8662 27.8861 18.8662Z" fill="#FFB6B6"/>
<path d="M33.0629 21.8722C32.5078 21.4079 32.1215 20.7731 31.9639 20.0664C31.8378 20.9244 31.8708 21.7984 32.061 22.6445C31.6919 22.9223 31.3339 23.1862 30.9954 23.4251C30.739 22.7653 30.3875 22.1466 29.9519 21.5888C29.9103 22.4667 29.8714 23.3474 29.8326 24.2252C29.4001 24.5185 28.9444 24.7759 28.47 24.9948L28.6726 24.7531C30.1267 22.6084 26.3636 18.6607 27.8178 16.5187C28.2258 15.9186 26.3831 11.1764 24.9788 10.9625C23.73 10.7735 23.7827 11.1347 22.5728 11.3986C22.4471 10.874 22.2521 10.3686 21.9928 9.89565C22.0618 10.4226 22.0459 10.9573 21.9456 11.4792C21.5154 11.4959 21.177 11.2215 20.719 11.1514C17.7967 10.7041 18.0937 7.53982 18.9068 6.5369C19.7227 5.53678 22.4312 5.23674 23.6801 4.91169C23.7938 4.80057 24.0519 4.87003 24.1657 4.76446C26.559 2.57181 29.7599 2.20869 32.6404 3.18052C35.7122 4.2169 37.6274 6.22276 38.6104 9.31503L38.8923 11.7896C39.1452 12.5853 38.8271 16.2875 38.6104 17.0938C37.7681 20.2281 35.9743 18.6634 33.0629 21.8722Z" fill="#242424"/>
<path d="M43.0014 54.1994L42.733 33.2782C42.719 32.3918 42.3575 31.5465 41.7264 30.9247C41.0954 30.3029 40.2454 29.9543 39.3599 29.9543H39.3599C38.9018 29.9543 38.4485 30.0477 38.0276 30.2288C37.6068 30.4099 37.2272 30.6749 36.912 31.0077C36.5968 31.3404 36.3526 31.734 36.1942 32.1643C36.0359 32.5946 35.9668 33.0527 35.9911 33.5106L36.9353 55.2341L36.9532 68.4583C36.3967 68.6946 35.9263 69.0966 35.606 69.6099C35.2857 70.1231 35.1309 70.7225 35.1628 71.3269C35.1946 71.9312 35.4116 72.511 35.7841 72.9876C36.1566 73.4642 36.6666 73.8144 37.2449 73.9907C37.8232 74.167 38.4417 74.1609 39.0163 73.973C39.591 73.7852 40.0939 73.4249 40.4569 72.9409C40.8198 72.457 41.0251 71.8729 41.0449 71.2681C41.0647 70.6633 40.8981 70.067 40.5676 69.5603L43.0014 54.1994Z" fill="#FFB6B6"/>
<path d="M78.1794 81.2665C78.1794 81.2665 77.7645 88.7385 77.5737 92.9999H63.2862C62.9921 89.1218 62.8931 86.2726 62.8931 86.2726L62.1114 92.9999H47.6695L46.7742 80.5407L51.1009 69.8041C51.1009 69.8041 74.5485 68.1762 76.7235 70.2413C78.8971 72.305 78.1794 81.2665 78.1794 81.2665Z" fill="#242424"/>
<path d="M65.5452 18.4111C69.8554 18.4111 73.3495 14.9133 73.3495 10.5985C73.3495 6.28372 69.8554 2.78589 65.5452 2.78589C61.2351 2.78589 57.741 6.28372 57.741 10.5985C57.741 14.9133 61.2351 18.4111 65.5452 18.4111Z" fill="#FFB6B6"/>
<path d="M74.6418 8.05985C73.8402 8.42575 73.3208 11.0758 72.6907 10.4597C72.0607 9.84366 72.1027 9.04191 71.2533 8.81454C70.5673 8.63015 69.8291 8.84089 69.2034 9.17326C69.0917 9.2319 68.9834 9.29567 68.8778 9.35909C68.8081 9.31248 68.7388 9.26862 68.6643 9.22816C68.1047 8.92833 67.4514 8.85478 66.8392 9.02265C67.323 9.18486 67.7436 9.4952 68.0415 9.90979C67.8321 10.0503 67.62 10.1911 67.403 10.3159C65.5905 11.363 63.0113 9.08614 61.1035 8.23077C62.2985 10.4757 61.7101 11.4055 60.6725 13.7273L60.6366 13.8595C60.6956 13.2776 58.8968 12.8439 59.0011 13.663C59.0752 14.2446 59.578 15.5374 59.8596 16.0509C57.8537 13.729 56.4829 10.8877 56.7721 7.95657C56.8351 7.34085 56.8161 6.69118 57.1334 6.15677C57.451 5.62511 58.1131 5.25202 58.6988 5.45476C58.6492 4.52001 58.8535 3.58926 59.2901 2.76148C59.7266 1.93369 60.3791 1.2398 61.1782 0.753583C61.9772 0.267365 62.8929 0.00698995 63.8279 0.000138782C64.763 -0.00671238 65.6824 0.240218 66.4885 0.714675C67.2375 1.15464 67.8628 1.77689 68.5492 2.31364C69.2357 2.85037 70.0271 3.31823 70.8975 3.36254C71.4498 3.3892 72.0507 3.25424 72.5251 3.54056C73.0747 3.87278 73.1688 4.56836 73.2513 5.23768C72.7611 5.28605 72.2964 5.47963 71.9167 5.79367C72.4239 5.74188 72.9345 5.85151 73.3758 6.10696C73.3842 6.11076 73.3922 6.11531 73.3997 6.12056C73.6903 7.22672 73.6605 7.47194 74.6418 8.05985Z" fill="#242424"/>
<path d="M47.7041 73.5839C54.3501 65.7963 52.1053 55.8911 49.4675 45.8924L49.9694 31.1212C49.9941 30.3966 50.1925 29.6886 50.548 29.0569C50.9034 28.4253 51.4055 27.8885 52.0118 27.492L58.7965 23.0548L61.4373 19.2327L68.7164 19.9614L72.7529 24.2347L77.221 27.6494C78.3428 28.5067 79.1964 29.6673 79.6812 30.9943C80.1659 32.3213 80.2615 33.7593 79.9568 35.1389L75.681 54.4961C75.681 54.4961 77.4694 64.5309 76.3782 65.6392C75.287 66.7475 72.4753 65.6398 74.705 66.8839C77.3808 68.3769 79.8138 68.1014 78.4597 69.457C77.1056 70.8125 78.8193 72.6971 78.8193 72.6971L47.7041 73.5839Z" fill="#CD1315"/>
<path d="M50.5457 84.9021L51.6536 77L47.2326 75.7366L46.3582 84.1329C45.9923 84.4687 45.7273 84.9 45.5929 85.3784C45.4584 85.8568 45.46 86.3632 45.5973 86.8407C45.7346 87.3182 46.0023 87.7479 46.3702 88.0815C46.7381 88.4151 47.1917 88.6394 47.6799 88.7291C48.1682 88.8187 48.6717 88.7703 49.134 88.5892C49.5962 88.4081 49.9989 88.1015 50.2966 87.7039C50.5943 87.3063 50.7754 86.8334 50.8194 86.3385C50.8634 85.8435 50.7686 85.3461 50.5457 84.9021Z" fill="#FFB6B6"/>
<path d="M58.9625 24.4792C58.9625 24.4792 46.3786 28.5793 46.0785 31.5793C45.7784 34.5792 45.8779 36.4157 44.5498 48.4203L44.6198 80.7573C44.6198 80.7573 53.0566 82.5656 52.1913 80.6322C51.3261 78.6988 51.628 77.7892 51.628 77.7892C51.628 77.7892 53.4369 77.0746 52.9841 74.8045C52.5313 72.5345 54.802 61.2847 54.802 61.2847L56.2352 41.1087L58.9625 24.4792Z" fill="#CD1315"/>
<path d="M74.4788 84.4836L73.8892 76.5259L78.3832 75.5544L78.7075 83.99C79.0507 84.349 79.287 84.7968 79.3899 85.2829C79.4928 85.7691 79.4582 86.2743 79.29 86.7418C79.1218 87.2093 78.8266 87.6206 78.4377 87.9294C78.0488 88.2382 77.5815 88.4323 77.0885 88.4899C76.5954 88.5474 76.0961 88.4661 75.6467 88.2552C75.1973 88.0442 74.8155 87.712 74.5444 87.2957C74.2732 86.8795 74.1234 86.3958 74.1119 85.899C74.1003 85.4022 74.2273 84.912 74.4788 84.4836H74.4788Z" fill="#FFB6B6"/>
<path d="M70.0254 23.6394C70.0254 23.6394 82.3147 28.5541 82.4183 31.5673C82.5218 34.5805 82.3026 36.4065 82.8441 48.4723L80.6628 80.7356C80.6628 80.7356 72.126 81.988 73.1156 80.1153C74.1052 78.2427 73.8634 77.3153 73.8634 77.3153C73.8634 77.3153 72.105 76.4839 72.7051 74.2483C73.3051 72.0127 71.7738 60.6383 71.7738 60.6383L71.6611 40.4118L70.0254 23.6394Z" fill="#CD1315"/>
</svg>
