<svg width="669" height="539" viewBox="0 0 669 539" fill="none" xmlns="http://www.w3.org/2000/svg">
<path d="M280.936 87.2223C288.804 62.1471 306.696 39.149 331.441 30.6722C356.187 22.1954 392.421 35.1083 411.025 53.6488C445.054 87.5632 446.101 129.08 422.722 165.898C418.071 165.652 402.025 165.47 397.319 165.294L390.66 143.103V165.075C353.924 163.94 313.035 194.156 277.411 165.386C273.981 139.318 273.068 112.298 280.936 87.2223Z" fill="#1D1D1D"/>
<path d="M381.55 343.539L389.142 363.278L387.624 383.018L241.852 364.797L246.407 348.094L263.11 328.354L381.55 343.539Z" fill="#FFB6B6"/>
<path d="M334.568 165.9C363.878 165.9 387.639 142.139 387.639 112.829C387.639 83.5196 363.878 59.7592 334.568 59.7592C305.258 59.7592 281.498 83.5196 281.498 112.829C281.498 142.139 305.258 165.9 334.568 165.9Z" fill="#FFB7B7"/>
<path d="M278.294 203.841L308.663 185.619L369.401 179.545L423.085 191.693L422.547 290.393L388.491 377.007L245.756 358.786L240.333 328.234C240.333 328.234 200.853 275.208 243.369 244.839L278.294 203.841Z" fill="#CD1315"/>
<path d="M412.248 459.72C403.508 460.11 394.782 460.657 386.068 461.36C381.968 461.69 377.868 462.053 373.768 462.45C358.118 463.98 342.508 466 326.938 468.51C324.008 468.98 321.085 469.473 318.169 469.99C315.439 470.46 312.719 470.95 309.989 471.46C295.159 474.21 280.395 477.417 265.698 481.08C265.678 481.09 265.648 481.09 265.628 481.1L191.729 499.56C195.999 461.06 206.058 401.65 228.188 387.57L242.648 361.85L242.659 361.83L243.549 360.26L270.328 363.05L292.849 365.4L308.388 367.02L318.099 368.02L318.248 368.04L388.208 375.33L389.109 375.43H389.138V409.15C389.138 409.15 389.598 409.74 390.378 410.85C390.698 411.29 391.058 411.81 391.458 412.4C394.557 416.925 397.401 421.619 399.979 426.46C400.399 427.24 400.819 428.04 401.229 428.87C403.979 434.208 406.362 439.727 408.359 445.39C410.013 450.062 411.314 454.852 412.248 459.72Z" fill="#1D1D1D"/>
<path d="M298.104 43.7227C318.376 31.3637 345.394 31.0075 365.986 42.8278C386.577 54.648 399.895 78.1583 399.447 101.897C369.782 103.262 339.012 131.122 307.022 103.678L299.554 85.4014L295.151 103.692C285.523 103.691 275.877 103.678 266.212 103.654C265.137 79.9348 277.83 56.0816 298.104 43.7227Z" fill="#1D1D1D"/>
<path d="M425.758 384.556L477.385 414.925C489.533 408.851 487.185 369.461 479.767 367.154L474.175 235.728C471.138 174.99 423.085 191.693 423.085 191.693L401.289 196.249L416.474 260.024L432.968 370.062C430.728 371.757 428.911 373.947 427.66 376.462C426.409 378.977 425.758 381.747 425.758 384.556Z" fill="#CD1315"/>
<path d="M406.709 417.12L402.379 426.39L401.229 428.87L389.079 454.9L386.069 461.36C381.969 461.69 377.869 462.053 373.769 462.45C358.119 463.98 342.509 466 326.939 468.51L331.459 449.85L318.169 469.99C315.439 470.46 312.719 470.95 309.989 471.46C295.159 474.21 280.396 477.417 265.699 481.08L305.969 387.77V387.76L309.429 379.74L390.379 410.85L392.519 411.67L406.709 417.12Z" fill="#AAAAAA"/>
<path d="M303.148 384.278C329.227 417.787 365.79 429.078 409.114 426.038L470.803 235.781L441.713 230.642L429.289 214.454L396.813 210.192L380.725 218.031L353.824 217.433L333.357 284.817L295.643 351.772L303.148 384.278Z" fill="#E6E7E8"/>
<path d="M507.636 226.713L494.66 237.986L467.885 207.169L459.804 203.83C458.183 203.16 456.742 202.116 455.6 200.783C454.459 199.451 453.648 197.868 453.234 196.163C452.82 194.457 452.815 192.679 453.219 190.971C453.623 189.264 454.425 187.676 455.559 186.337C456.597 185.112 457.888 184.125 459.343 183.445C460.798 182.766 462.382 182.409 463.988 182.398C465.594 182.388 467.183 182.726 468.646 183.387C470.109 184.049 471.412 185.019 472.465 186.231L480.861 195.895L507.636 226.713Z" fill="#FFB8B8"/>
<path d="M437.791 302.834L487.305 261.36L507.426 243.122C508.864 241.818 510.017 240.231 510.812 238.461C511.608 236.69 512.028 234.775 512.048 232.834C512.068 230.893 511.686 228.969 510.927 227.183C510.167 225.397 509.047 223.787 507.635 222.454L507.291 216.244C507.2 214.597 506.758 212.989 505.995 211.527C505.231 210.065 504.164 208.783 502.865 207.767C501.566 206.751 500.065 206.024 498.462 205.635C496.859 205.247 495.192 205.205 493.571 205.513L476.348 222.454L485.914 227.92L474.91 234.547L446.694 236.145L437.791 302.834Z" fill="#E6E7E8"/>
<path d="M424.486 210.632C446.439 210.632 464.236 192.836 464.236 170.882C464.236 148.929 446.439 131.132 424.486 131.132C402.533 131.132 384.736 148.929 384.736 170.882C384.736 192.836 402.533 210.632 424.486 210.632Z" fill="#FFB8B8"/>
<path d="M454.564 124.276C479.029 133.388 493.753 146.417 484.641 170.882C475.529 195.347 450.645 219.755 426.18 210.643C401.715 201.531 417.597 192.798 390.659 143.103C378.219 120.151 430.099 115.165 454.564 124.276Z" fill="#1D1D1D"/>
<path d="M473.949 412.9C473.749 413.03 473.539 413.16 473.329 413.28C472.919 413.53 472.499 413.76 472.069 413.97L408.359 445.39L389.079 454.9L373.769 462.45C358.119 463.98 342.509 466 326.939 468.51C324.009 468.98 321.086 469.473 318.169 469.99C315.439 470.46 312.719 470.95 309.989 471.46C309.747 469.67 309.72 467.857 309.909 466.06C310.245 462.721 311.282 459.491 312.953 456.581C314.624 453.671 316.891 451.147 319.605 449.174C322.319 447.201 325.42 445.823 328.703 445.131C331.987 444.44 335.38 444.45 338.659 445.16C339.884 445.433 341.084 445.804 342.249 446.27L373.319 424.88L391.459 412.4L392.519 411.67L419.879 392.83L419.889 392.82L428.489 386.91L429.069 386.51L434.899 382.5L432.779 355.26L473.469 346.69L481.909 394.55C482.527 398.052 482.102 401.659 480.687 404.921C479.272 408.184 476.929 410.958 473.949 412.9Z" fill="#FFB6B6"/>
<path d="M478.496 367.154L475.927 328.354L432.778 355.258L431.696 370.062C429.456 371.757 427.639 373.947 426.388 376.462C425.137 378.976 424.486 381.747 424.486 384.555L476.114 414.925C488.261 408.851 485.913 369.461 478.496 367.154Z" fill="#CD1315"/>
<path d="M222.939 186.867C223.249 188.843 223.989 190.728 225.106 192.387C226.224 194.047 227.691 195.441 229.406 196.472C231.12 197.503 233.04 198.145 235.03 198.354C237.02 198.563 239.031 198.333 240.922 197.68L350.949 256.244L360.287 227.987L249.198 179.306C247.891 176.201 245.491 173.684 242.452 172.231C239.413 170.778 235.946 170.49 232.71 171.422C229.473 172.354 226.69 174.441 224.889 177.288C223.089 180.134 222.394 183.543 222.939 186.867Z" fill="#FFB6B6"/>
<path d="M395.425 271.101C395.425 271.101 374.817 284.56 361.027 277.892C349.988 272.555 316.768 243.953 303.948 232.75C302.01 234.141 299.663 234.848 297.279 234.759C294.894 234.67 292.607 233.79 290.777 232.258L310.939 203.179C318.888 202.134 320.022 207.366 319.955 210.514L340.452 218.904L357.824 218.609L396.812 266.062L395.425 271.101Z" fill="#E6E7E8"/>
<path d="M392.49 390.39C390.542 393.163 388.009 395.474 385.07 397.163C382.131 398.851 378.858 399.874 375.481 400.16C372.104 400.446 368.705 399.989 365.524 398.819C362.343 397.65 359.457 395.797 357.07 393.392L212.851 398.055L194.411 398.651C175.443 399.265 164.518 377.32 176.439 362.555L189.249 346.69L235.063 353.876L251.629 354.602L358.217 359.273C362.524 355.53 368.054 353.496 373.76 353.558C379.466 353.62 384.951 355.773 389.175 359.608C393.4 363.444 396.071 368.696 396.682 374.369C397.293 380.042 395.801 385.742 392.49 390.39Z" fill="#FFB6B6"/>
<path d="M265.275 210.643C265.275 210.643 237.784 203.668 224.754 226.106C214.322 244.07 178.837 312.01 171.471 339.894C135.528 426.513 219.095 392.019 216.757 400.19L244.714 354.299C256.862 348.225 233.479 356.064 230.399 351.709L251.83 328.417L276.125 316.269L285.039 221.163L265.275 210.643Z" fill="#CD1315"/>
</svg>
