<svg width="110" height="110" viewBox="0 0 110 110" fill="none" xmlns="http://www.w3.org/2000/svg">
<path d="M31.487 13.5742C34.6449 13.5742 37.205 11.0052 37.205 7.83607C37.205 4.66697 34.6449 2.0979 31.487 2.0979C28.3291 2.0979 25.769 4.66697 25.769 7.83607C25.769 11.0052 28.3291 13.5742 31.487 13.5742Z" fill="#FFB6B6"/>
<path d="M34.517 14.7852L26.9906 16.9431L25.9154 19.3709L23.4963 30.9701V49.313C23.4963 49.313 20.5395 55.787 22.1523 61.4517C23.8762 67.5068 29.9474 60.36 34.517 61.1756C39.0866 61.9912 46.3441 62.8004 46.3441 62.8004L42.0434 43.1088L40.9682 19.1011L34.517 14.7852H34.517Z" fill="#E6E6E6"/>
<path d="M33.0968 9.71519L31.9343 9.13188C31.9343 9.13188 31.6437 6.50697 31.0624 5.92366C30.4812 5.34035 30.4812 5.04869 30.4812 5.04869L31.3531 3.88206C31.3531 3.88206 26.9936 6.21532 26.1217 4.75703C25.2499 3.29875 26.4124 2.71544 26.4124 2.71544L24.9592 1.54881C24.9592 1.54881 26.703 2.71544 26.9936 1.84047C27.2843 0.965496 29.028 0.371849 29.028 0.371849C29.028 0.371849 32.836 1.23648 32.5305 0.371849C32.225 -0.492787 33.3875 0.382184 33.6781 0.67384C33.9687 0.965496 36.5844 3.88206 36.875 3.59041C37.1657 3.29875 38.6188 4.17372 38.3282 4.46538C38.0375 4.75703 38.0375 5.04869 38.3282 5.34035C38.6188 5.63201 40.3626 8.84023 38.9094 10.0069C37.4563 11.1735 35.4219 12.6318 35.7125 13.7984C36.0031 14.965 35.7125 10.0069 33.0968 9.7152L33.0968 9.71519Z" fill="#242424"/>
<path d="M4.90991 24.1625C3.44231 22.8929 2.90548 21.1038 3.71076 20.1667C4.51605 19.2295 6.35825 19.4992 7.82621 20.7694C8.41953 21.2688 8.88506 21.9035 9.18385 22.6204L15.3344 28.0785L12.7206 30.9204L6.93471 25.2379C6.18388 25.0469 5.48957 24.6781 4.90991 24.1625L4.90991 24.1625Z" fill="#FFB6B6"/>
<path d="M25.98 19.4636L30.0315 19.094L33.5845 36.099C34.2615 39.3393 32.145 42.5028 28.9001 43.1005L25.98 43.6384L7.36841 27.1935L10.0876 22.6446L23.8128 31.2847L25.98 19.4636V19.4636Z" fill="#E6E6E6"/>
<path d="M16.9351 95.0872C16.9351 95.0872 13.7217 101.076 13.9512 100.846C14.1807 100.615 18.0827 101.997 18.0827 101.997L20.378 96.0085L16.9351 95.0872Z" fill="#FFB6B6"/>
<path d="M12.1922 53.1663C12.1922 53.1663 10.5472 59.7648 10.7132 59.4848C10.8791 59.2048 15.0001 59.5801 15.0001 59.5801L15.7552 53.2084L12.1922 53.1663H12.1922Z" fill="#FFB6B6"/>
<path d="M40.806 52.0568C33.5441 53.0806 26.9849 52.188 21.6404 47.9827C21.6404 47.9827 17.7384 61.112 24.8538 62.4941C31.9691 63.8761 39.8879 61.5007 40.806 59.1973C41.7241 56.8939 40.806 52.0568 40.806 52.0568Z" fill="#242424"/>
<path d="M27.2638 56.2029L19.3451 74.9324L15.6726 96.5843L20.4927 97.736L29.1145 77.8116L40.806 58.7366L27.2638 56.2029Z" fill="#242424"/>
<path d="M26.2308 50.8619C26.2308 50.8619 24.3945 36.5809 20.9516 35.6595C19.2732 35.2103 17.7038 35.2539 16.5361 35.4164C15.3592 35.5803 14.4209 36.4827 14.2152 37.6571L11.0864 55.5119H15.5107L16.9349 50.6748L20.7221 57.3114L26.2308 50.8619V50.8619Z" fill="#242424"/>
<path d="M14.984 57.772L10.6094 57.3113L9.93437 59.8451C9.93437 59.8451 2.81899 66.2946 6.49144 66.7553C10.1639 67.2159 13.6068 64.6822 13.6068 64.6822L18.6587 61.7739C18.6587 61.7739 16.7055 56.5483 15.3283 56.5483C13.9511 56.5483 14.984 57.772 14.984 57.772Z" fill="#242424"/>
<path d="M17.2792 100.961L12.9046 100.5L12.2295 103.034C12.2295 103.034 5.11416 109.483 8.78661 109.944C12.4591 110.405 15.902 107.871 15.902 107.871L20.9539 104.963C20.9539 104.963 20.6073 99.5068 19.2301 99.5068C17.853 99.5068 17.2792 100.961 17.2792 100.961Z" fill="#242424"/>
<path d="M39.4293 66.091C38.9018 67.9064 37.5409 69.1048 36.3897 68.7677C35.2385 68.4307 34.7331 66.686 35.261 64.87C35.462 64.1417 35.8338 63.4723 36.3454 62.9178L38.677 55.2542L42.2374 56.4288L39.5608 63.8591C39.6952 64.6029 39.6501 65.3682 39.4293 66.091Z" fill="#FFB6B6"/>
<path d="M41.8937 19.1343L40.0373 18.6089V18.6089C38.2867 22.1042 37.534 26.0173 37.8624 29.9153L38.7786 40.792L35.7554 59.9097L41.6809 61.4481L46.3504 37.4563L41.8937 19.1343V19.1343Z" fill="#E6E6E6"/>
<path d="M84.275 8.87817C84.275 8.87817 86.4639 10.1664 85.746 11.4404C85.0282 12.7144 84.0273 14.4498 84.7063 14.9963C85.3853 15.5428 86.5062 17.9525 86.5062 17.9525C86.5062 17.9525 91.2908 17.2819 90.8417 21.0116C90.3925 24.7414 88.1447 25.2499 90.0713 26.8907C91.9979 28.5316 88.069 30.494 88.069 30.494C88.069 30.494 85.3567 29.6458 84.7379 27.0374C84.1191 24.429 85.2895 29.0318 84.897 29.3619C84.5044 29.6919 82.9803 31.8673 81.9017 28.975C80.8232 26.0827 81.8912 24.9613 80.4661 23.2543C79.041 21.5473 78.0721 18.7863 78.1146 18.3037C78.157 17.821 76.4844 13.4169 79.0589 11.6994C81.6334 9.9818 84.275 8.87818 84.275 8.87818V8.87817Z" fill="#242424"/>
<path d="M105.836 49.3462C107.107 50.4018 108.68 50.5993 109.349 49.7875C110.018 48.9758 109.531 47.4623 108.259 46.4066C107.757 45.9779 107.16 45.6761 106.518 45.5264L101.077 41.1223L99.0715 43.7287L104.648 47.7937C104.915 48.399 105.322 48.9314 105.836 49.3462Z" fill="#FFB6B6"/>
<path d="M89.5288 25.3276C89.5288 25.3276 85.2588 22.4618 83.8605 23.867C82.4622 25.2722 82.7961 28.782 82.7961 28.782L93.9938 41.8782L102.873 47.5422L105.254 43.8008L97.789 37.1162L89.5288 25.3276V25.3276Z" fill="#CD1315"/>
<path d="M83.2695 19.1201L84.8188 24.6464H76.3154L79.1155 17.8372L83.2695 19.1201Z" fill="#FFB6B6"/>
<path opacity="0.1" d="M83.2695 19.1201L84.8188 24.6464H76.3154L79.1155 17.8372L83.2695 19.1201Z" fill="black"/>
<path d="M64.7254 59.9225C64.6156 61.5744 65.3759 62.9702 66.4235 63.0401C67.4711 63.1101 68.409 61.8278 68.5186 60.1753C68.5714 59.5158 68.466 58.8532 68.2113 58.243L68.5884 51.2381L65.309 51.1306L65.2855 58.0476C64.9522 58.6187 64.7602 59.2617 64.7254 59.9225Z" fill="#FFB6B6"/>
<path d="M74.6 32.6002C74.6 32.6002 74.4187 27.4484 72.4651 27.1321C70.5114 26.8159 67.87 29.1406 67.87 29.1406L63.8347 45.9152L64.4504 56.4555L68.8669 56.2051L69.9035 46.219L74.6 32.6002V32.6002Z" fill="#CD1315"/>
<path d="M93.5411 94.1658C93.5411 94.1658 96.7545 100.155 96.5249 99.9243C96.2954 99.6939 92.3934 101.076 92.3934 101.076L90.0981 95.0871L93.5411 94.1658Z" fill="#FFB6B6"/>
<path d="M98.2839 52.2449C98.2839 52.2449 99.9289 58.8434 99.7629 58.5634C99.597 58.2834 95.476 58.6587 95.476 58.6587L94.7209 52.2871L98.2839 52.2449Z" fill="#FFB6B6"/>
<path d="M85.5074 22.8037H77.4848L68.7519 28.7925L66.2271 49.7535L67.6042 53.8996L70.129 58.7367C70.129 58.7367 67.6042 48.1411 73.8015 52.2872C79.9988 56.4333 80.4578 57.1243 80.4578 57.1243L88.7208 52.9782L91.8195 35.8179L89.5242 26.374L85.5074 22.8037Z" fill="#CD1315"/>
<path d="M69.67 51.1354C76.9319 52.1592 83.4911 51.2666 88.8356 47.0613C88.8356 47.0613 92.7376 60.1906 85.6222 61.5727C78.5069 62.9547 70.5881 60.5793 69.67 58.2759C68.7519 55.9725 69.67 51.1354 69.67 51.1354Z" fill="#242424"/>
<path d="M83.2121 55.2815L91.1308 74.011L94.8033 95.6629L89.9832 96.8146L81.3614 76.8902L69.6699 57.8152L83.2121 55.2815Z" fill="#242424"/>
<path d="M84.2451 49.9405C84.2451 49.9405 86.0813 35.6595 89.5243 34.7381C91.2027 34.289 92.7721 34.3325 93.9398 34.4951C95.1167 34.6589 96.0549 35.5613 96.2607 36.7357L99.3895 54.5905H94.9652L93.541 49.7534L89.7538 56.3901L84.2451 49.9405V49.9405Z" fill="#242424"/>
<path d="M95.4918 56.8506L99.8664 56.39L100.541 58.9237C100.541 58.9237 107.657 65.3732 103.984 65.8339C100.312 66.2946 96.869 63.7608 96.869 63.7608L91.8171 60.8526C91.8171 60.8526 93.7704 55.627 95.1476 55.627C96.5247 55.627 95.4918 56.8506 95.4918 56.8506Z" fill="#242424"/>
<path d="M93.1967 100.039L97.5713 99.5788L98.2463 102.113C98.2463 102.113 105.362 108.562 101.689 109.023C98.0168 109.483 94.5739 106.95 94.5739 106.95L89.522 104.041C89.522 104.041 89.8685 98.5854 91.2457 98.5854C92.6229 98.5854 93.1967 100.039 93.1967 100.039Z" fill="#242424"/>
<path d="M81.2493 20.3208C84.0775 20.3208 86.3703 18.0199 86.3703 15.1817C86.3703 12.3435 84.0775 10.0427 81.2493 10.0427C78.4211 10.0427 76.1284 12.3435 76.1284 15.1817C76.1284 18.0199 78.4211 20.3208 81.2493 20.3208Z" fill="#FFB6B6"/>
<path d="M83.2124 9.44323C83.2124 9.44323 84.0659 11.8414 82.7004 12.3553C81.3348 12.8692 79.4571 13.5544 79.6278 14.4109C79.7985 15.2675 79.1157 17.837 79.1157 17.837C79.1157 17.837 83.2124 20.4065 80.4813 22.976C77.7501 25.5455 75.7018 24.4867 76.1285 26.986C76.5552 29.4854 72.2878 28.4576 72.2878 28.4576C72.2878 28.4576 70.7515 26.0594 71.9464 23.6612C73.1413 21.263 71.0929 25.5455 70.5808 25.5455C70.0688 25.5455 67.5083 26.2307 68.5325 23.3186C69.5567 20.4065 71.0929 20.2352 71.0929 18.0083C71.0929 15.7814 72.1171 13.0405 72.4585 12.6979C72.7999 12.3553 74.3362 7.90152 77.4087 8.24412C80.4813 8.58673 83.2124 9.44323 83.2124 9.44323Z" fill="#242424"/>
<path d="M38.4541 94.1658C38.4541 94.1658 35.2407 100.155 35.4702 99.9243C35.6998 99.6939 39.6017 101.076 39.6017 101.076L41.897 95.0871L38.4541 94.1658Z" fill="#A0616A"/>
<path d="M62.325 51.1354C55.0631 52.1592 48.5039 51.2666 43.1594 47.0613C43.1594 47.0613 39.2574 60.1906 46.3728 61.5727C53.4882 62.9547 61.4069 60.5793 62.325 58.2759C63.2431 55.9725 62.325 51.1354 62.325 51.1354Z" fill="#242424"/>
<path d="M48.7831 55.2815L40.8643 74.011L37.1919 95.6629L42.012 96.8146L50.6338 76.8902L62.3252 57.8152L48.7831 55.2815Z" fill="#242424"/>
<path d="M38.7984 100.039L34.4238 99.5788L33.7488 102.113C33.7488 102.113 26.6334 108.562 30.3059 109.023C33.9783 109.483 37.4213 106.95 37.4213 106.95L42.4732 104.041C42.4732 104.041 42.1266 98.5854 40.7494 98.5854C39.3723 98.5854 38.7984 100.039 38.7984 100.039Z" fill="#242424"/>
<path d="M45.7099 91.0149C45.7099 91.0149 44.4943 97.7065 44.6418 97.4163C44.7893 97.1262 48.9258 97.2328 48.9258 97.2328L49.2681 90.8254L45.7099 91.0149Z" fill="#A0616A"/>
<path d="M43.5811 50.8296L41.8064 71.0971L44.9693 92.8299L49.9083 92.4331L51.9844 70.8113L57.2416 49.0471L43.5811 50.8296Z" fill="#242424"/>
<path d="M47.8431 96.4954L43.5403 97.4116L43.6771 100.031C43.6771 100.031 38.8914 108.369 42.5264 107.67C46.1613 106.971 48.6574 103.495 48.6574 103.495L52.5688 99.1645C52.5688 99.1645 50.5619 94.0819 49.2519 94.5083C47.9419 94.9347 47.8431 96.4954 47.8431 96.4954Z" fill="#242424"/>
<path d="M47.7202 8.87817C47.7202 8.87817 45.5313 10.1664 46.2492 11.4404C46.967 12.7144 47.9679 14.4498 47.2889 14.9963C46.6099 15.5428 45.489 17.9525 45.489 17.9525C45.489 17.9525 40.7044 17.2819 41.1535 21.0116C41.6027 24.7414 43.8504 25.2499 41.9239 26.8907C39.9973 28.5316 43.9262 30.494 43.9262 30.494C43.9262 30.494 46.6385 29.6458 47.2573 27.0374C47.8761 24.429 46.7057 29.0318 47.0982 29.3619C47.4908 29.6919 49.0149 31.8673 50.0935 28.975C51.172 26.0827 50.104 24.9613 51.5291 23.2543C52.9542 21.5473 53.9231 18.7863 53.8806 18.3037C53.8382 17.821 55.5108 13.4169 52.9363 11.6994C50.3618 9.9818 47.7202 8.87818 47.7202 8.87818V8.87817Z" fill="#242424"/>
<path d="M48.7256 19.1201L47.1763 24.6464H55.6797L52.8796 17.8372L48.7256 19.1201Z" fill="#A0616A"/>
<path opacity="0.1" d="M48.7256 19.1201L47.1763 24.6464H55.6797L52.8796 17.8372L48.7256 19.1201Z" fill="black"/>
<path d="M67.2697 59.9225C67.3795 61.5744 66.6192 62.9702 65.5716 63.0401C64.524 63.1101 63.5861 61.8278 63.4765 60.1753C63.4237 59.5158 63.5291 58.8532 63.7838 58.243L63.4067 51.2381L66.6861 51.1306L66.7096 58.0476C67.0429 58.6187 67.2349 59.2617 67.2697 59.9225H67.2697Z" fill="#A0616A"/>
<path d="M57.395 32.6002C57.395 32.6002 57.5764 27.4484 59.53 27.1321C61.4836 26.8159 64.125 29.1406 64.125 29.1406L68.1603 45.9152L67.5447 56.4555L63.1281 56.2051L62.0916 46.219L57.395 32.6002V32.6002Z" fill="#AAAAAA"/>
<path d="M46.4877 22.8037H54.5104L63.2433 28.7925L65.7681 49.7535L64.391 53.8996L61.8661 58.7367C61.8661 58.7367 64.391 48.1411 58.1937 52.2872C58.1317 52.3287 58.0703 52.3698 58.0095 52.4105C54.0202 55.0845 48.7563 54.8099 45.0636 51.7368L42.1267 49.2928L43.7334 41.2309L42.471 26.374L46.4877 22.8037V22.8037Z" fill="#AAAAAA"/>
<path d="M26.4128 49.0461C25.126 50.0822 23.5504 50.2557 22.8935 49.4338C22.2366 48.6119 22.7473 47.1061 24.0346 46.0699C24.5432 45.6488 25.1449 45.3562 25.7892 45.2164L31.2964 40.8958L33.2617 43.5325L27.624 47.5119C27.3481 48.113 26.9328 48.6391 26.4128 49.0461V49.0461Z" fill="#A0616A"/>
<path d="M43.082 25.2788C43.082 25.2788 47.3949 22.4786 48.7717 23.9049C50.1486 25.3313 49.7615 28.8356 49.7615 28.8356L38.3668 41.7595L29.4028 47.2874L27.0789 43.5101L34.6441 36.9401L43.082 25.2788Z" fill="#AAAAAA"/>
<path d="M50.7457 20.3208C53.5739 20.3208 55.8666 18.0199 55.8666 15.1817C55.8666 12.3435 53.5739 10.0427 50.7457 10.0427C47.9175 10.0427 45.6248 12.3435 45.6248 15.1817C45.6248 18.0199 47.9175 20.3208 50.7457 20.3208Z" fill="#A0616A"/>
<path d="M48.1964 11.7373C48.1964 11.7373 47.442 9.21362 48.6994 9.21362C49.9568 9.21362 54.9863 9.46599 55.4893 9.97072C55.9922 10.4755 61.9437 15.5411 58.4231 19.5789C54.9024 23.6168 58.4231 25.5677 58.4231 25.5677C58.4231 25.5677 61.0218 31.6742 58.507 32.179C55.9922 32.6837 45.6769 29.7976 48.1964 25.1127C50.9307 20.0286 52.2028 12.0041 48.1964 11.7373L48.1964 11.7373Z" fill="#242424"/>
<path d="M20.1052 47.1488L19.8462 38.9504C19.842 38.8173 19.8941 38.6877 19.9892 38.5949C20.0844 38.502 20.215 38.4533 20.3475 38.4613L26.8303 38.8515C26.9613 38.8593 27.0842 38.9221 27.1675 39.0238C27.2508 39.1255 27.2885 39.2586 27.271 39.389L26.1743 47.5376C26.1411 47.7841 25.9214 47.9643 25.6741 47.9479L20.5469 47.6076C20.4949 47.6042 20.4454 47.5925 20.3995 47.5739C20.2302 47.5052 20.1113 47.3418 20.1052 47.1488Z" fill="#AAAAAA"/>
<path d="M19.8541 38.1834C19.9448 38.1738 20.0663 38.162 20.2122 38.1498C20.1732 38.0769 20.1572 37.9907 20.1739 37.9023L20.2897 37.2882C20.3197 37.1288 20.4477 37.0066 20.6079 36.9851C21.5624 36.857 24.8456 36.5095 26.913 37.4507C27.0423 37.5096 27.1255 37.6389 27.1296 37.7814L27.1485 38.4366C27.1509 38.5176 27.1274 38.5926 27.0863 38.6549C27.2582 38.7013 27.4295 38.7503 27.5994 38.8038C27.7059 38.8373 27.7821 38.9316 27.7949 39.0429L27.827 39.3219C27.8474 39.499 27.7028 39.6512 27.5255 39.6392L19.7752 39.114C19.5988 39.102 19.476 38.9331 19.5184 38.7609L19.6077 38.3986C19.6365 38.2819 19.735 38.196 19.8541 38.1834V38.1834Z" fill="#CD1315"/>
<path d="M0.595148 23.8844L0.336173 15.6859C0.331971 15.5529 0.384091 15.4233 0.479212 15.3305C0.574386 15.2376 0.704961 15.1889 0.837491 15.1969L7.32032 15.5871C7.45129 15.5949 7.57418 15.6577 7.65746 15.7594C7.7408 15.8611 7.77852 15.9942 7.76096 16.1246L6.66427 24.2732C6.63109 24.5197 6.41139 24.6999 6.16406 24.6835L1.0369 24.3432C0.984885 24.3398 0.935348 24.3281 0.889474 24.3095C0.720144 24.2408 0.601255 24.0774 0.595148 23.8844V23.8844Z" fill="#AAAAAA"/>
<path d="M0.344122 14.919C0.43482 14.9094 0.556312 14.8976 0.702168 14.8853C0.663176 14.8125 0.647219 14.7263 0.663889 14.6379L0.77966 14.0238C0.809708 13.8644 0.937664 13.7422 1.09787 13.7207C2.05242 13.5926 5.33559 13.2451 7.40294 14.1863C7.53228 14.2452 7.61549 14.3745 7.61961 14.517L7.63852 15.1722C7.64085 15.2532 7.6174 15.3282 7.57629 15.3905C7.74816 15.4369 7.91946 15.4859 8.0894 15.5394C8.19589 15.5729 8.27211 15.6672 8.28491 15.7785L8.31703 16.0575C8.3374 16.2346 8.19275 16.3868 8.01552 16.3748L0.265193 15.8496C0.0888193 15.8376 -0.0340145 15.6687 0.0084276 15.4965L0.0977229 15.1342C0.12649 15.0175 0.224971 14.9316 0.344122 14.919V14.919Z" fill="#CD1315"/>
<path d="M102.276 49.2218L102.017 41.0233C102.013 40.8903 102.065 40.7607 102.16 40.6679C102.256 40.575 102.386 40.5263 102.519 40.5343L109.001 40.9245C109.132 40.9323 109.255 40.9951 109.339 41.0968C109.422 41.1985 109.46 41.3316 109.442 41.462L108.345 49.6106C108.312 49.8571 108.093 50.0373 107.845 50.0209L102.718 49.6806C102.666 49.6772 102.616 49.6655 102.571 49.6469C102.401 49.5782 102.282 49.4148 102.276 49.2218Z" fill="#AAAAAA"/>
<path d="M102.025 40.2564C102.116 40.2468 102.237 40.235 102.383 40.2227C102.344 40.1499 102.328 40.0637 102.345 39.9753L102.461 39.3612C102.491 39.2018 102.619 39.0796 102.779 39.0581C103.734 38.93 107.017 38.5825 109.084 39.5237C109.213 39.5826 109.297 39.7119 109.301 39.8544L109.32 40.5096C109.322 40.5906 109.299 40.6656 109.257 40.7279C109.429 40.7743 109.601 40.8233 109.771 40.8768C109.877 40.9103 109.953 41.0046 109.966 41.1159L109.998 41.3949C110.019 41.572 109.874 41.7242 109.697 41.7122L101.946 41.187C101.77 41.175 101.647 41.0061 101.69 40.8339L101.779 40.4716C101.808 40.3549 101.906 40.269 102.025 40.2564V40.2564Z" fill="#CD1315"/>
</svg>
