<svg width="40" height="135" viewBox="0 0 40 135" fill="none" xmlns="http://www.w3.org/2000/svg">
<path d="M22.3918 11.9819C22.3923 13.1461 22.1097 14.2925 21.5691 15.3206C21.0285 16.3488 20.2462 17.2271 19.291 17.8786C18.3358 18.5301 17.2369 18.9348 16.0907 19.0572C14.9445 19.1795 13.7861 19.0158 12.7172 18.5804C11.6483 18.1451 10.7015 17.4513 9.95999 16.56C9.21848 15.6688 8.70492 14.6073 8.46437 13.4688C8.22383 12.3303 8.26368 11.1495 8.58039 10.0302C8.89711 8.91087 9.48103 7.88717 10.2809 7.04898L10.3147 7.01488C10.371 6.95511 10.4273 6.89538 10.4865 6.83847C10.4869 6.83847 10.4872 6.8384 10.4876 6.83826C10.4879 6.83812 10.4882 6.83791 10.4885 6.83765C10.4888 6.83738 10.489 6.83707 10.4891 6.83672C10.4892 6.83637 10.4893 6.836 10.4893 6.83562C10.5625 6.76735 10.6358 6.69908 10.7118 6.63365C11.7293 5.73266 12.9823 5.14695 14.3208 4.94665C15.6593 4.74635 17.0266 4.93994 18.259 5.50425C19.4914 6.06856 20.5366 6.97967 21.2696 8.1285C22.0026 9.27732 22.3922 10.6152 22.3918 11.9819Z" fill="#242424"/>
<path d="M13.6159 19.591C16.8768 19.591 19.5203 16.921 19.5203 13.6273C19.5203 10.3336 16.8768 7.66357 13.6159 7.66357C10.355 7.66357 7.71155 10.3336 7.71155 13.6273C7.71155 16.921 10.355 19.591 13.6159 19.591Z" fill="#FEB8B8"/>
<path d="M19.8858 15.3281L18.9075 15.1535C18.3609 15.0532 17.8577 14.7866 17.4651 14.3896C17.0725 13.9925 16.8093 13.4838 16.7107 12.9316L15.7561 14.5474L15.7144 14.5614C13.44 15.3241 11.0737 15.096 8.48166 13.865C7.74059 13.5099 7.02165 13.1095 6.32884 12.6661L6.27765 12.6338L6.2735 12.5731C6.14139 10.6331 6.57232 9.01232 7.48745 8.0094C7.83879 7.63206 8.26512 7.33397 8.73848 7.13467C9.21184 6.93536 9.72155 6.83934 10.2342 6.85288C10.2707 6.84327 10.3042 6.82457 10.3317 6.79851C10.3449 6.78873 10.358 6.77907 10.3712 6.76987V6.75985L10.439 6.72759C10.5847 6.65844 10.7332 6.59217 10.8816 6.53162C12.05 6.07481 13.3222 5.96021 14.5521 6.201C15.782 6.4418 16.9197 7.02821 17.8345 7.89284C19.6532 9.64659 20.4874 12.5897 19.9103 15.2166L19.8858 15.3281Z" fill="#242424"/>
<path d="M32.3394 20.4092C30.3301 19.3618 32.9142 15.56 32.395 13.3372C31.8757 11.1144 28.1364 10.3995 27.8982 8.12838C27.66 5.85726 27.0996 3.51484 25.6158 1.7915C24.6677 0.690287 23.2707 -0.122665 21.8323 0.0152693C21.3457 0.061938 20.8746 0.214 20.4514 0.4611C20.0282 0.708201 19.6626 1.04454 19.3797 1.44719C19.0967 1.84985 18.903 2.30937 18.8117 2.79446C18.7205 3.27955 18.7338 3.77881 18.8508 4.25824C18.4412 3.67213 17.3814 3.79915 17.1191 4.46583C16.8858 5.05851 17.4011 5.77642 18.0074 5.82886C18.8008 6.81853 19.7094 7.86884 20.9524 8.06848C21.1504 8.11442 21.3562 8.1143 21.5542 8.06814C21.7522 8.02198 21.9372 7.93098 22.0953 7.80202C22.3877 7.51838 22.4105 6.95129 22.0636 6.73932C23.6257 7.36607 24.5415 9.07197 24.7733 10.7535C25.005 12.435 24.6844 14.1363 24.4731 15.8205C24.2618 17.5048 24.1707 19.2765 24.8245 20.8406C25.597 22.6885 27.3755 24.0129 29.3164 24.4376C31.2573 24.8624 33.3244 24.4473 35.0812 23.512C36.8381 22.5767 38.3031 21.1489 39.5 19.5481C37.4384 21.0267 34.5862 21.5806 32.3394 20.4092Z" fill="#242424"/>
<path d="M19.6345 15.1623C19.6345 15.1623 17.8855 8.56804 10.3879 7.04604C10.3795 7.04323 10.3513 7.03184 10.3147 7.01479C10.2922 7.00055 10.264 6.98631 10.2358 6.9721C10.3203 6.92373 10.402 6.88108 10.4865 6.83837C10.4869 6.83838 10.4872 6.83831 10.4876 6.83817C10.4879 6.83803 10.4883 6.83781 10.4885 6.83755C10.4888 6.83728 10.489 6.83697 10.4891 6.83662C10.4893 6.83627 10.4893 6.8359 10.4893 6.83552C10.5626 6.76725 10.6358 6.69898 10.7118 6.63355L10.9259 6.64209C10.9259 6.64209 18.4487 5.43876 19.6345 15.1623Z" fill="#FD6584"/>
<path d="M7.9138 73.1882C8.06057 72.9137 8.14597 72.61 8.16397 72.2986C8.18197 71.9871 8.13214 71.6755 8.01799 71.3856C7.90385 71.0957 7.72816 70.8346 7.50331 70.6207C7.27845 70.4068 7.00991 70.2453 6.71658 70.1476L6.60102 62.5649L3.37732 64.7848L3.98128 71.6451C3.85141 72.1537 3.91075 72.6928 4.14808 73.1602C4.38541 73.6275 4.78423 73.9907 5.26896 74.1809C5.7537 74.3711 6.29068 74.3751 6.77814 74.1922C7.2656 74.0092 7.66968 73.652 7.9138 73.1882Z" fill="#FEB8B8"/>
<path d="M13.0732 22.1782L10.1214 24.9661C6.74281 24.9661 8.71261 26.5909 6.71299 29.3416C5.60721 30.8627 4.91858 32.6517 4.71669 34.5278L2.57219 41.2916L0.5 63.6868L2.98664 64.3148L1.95054 67.4543H9.39736L8.37433 64.1055L9.50752 62.9609L8.47794 55.6288L12.0007 56.2567C12.0007 56.2567 24.3667 31.7014 13.0732 22.1782Z" fill="#242424"/>
<path d="M9.51106 45.4598L5.43262 73.5887L27.695 71.8939L21.0314 44.2219L9.51106 45.4598Z" fill="#FFB8B8"/>
<path d="M12.6139 130.203H10.1131L8.92334 120.461L12.6143 120.461L12.6139 130.203Z" fill="#FEB8B8"/>
<path d="M13.4607 128.957L12.613 128.907L9.9333 128.745L9.50832 128.718V130.431L5.74956 133.051C5.56365 133.181 5.42354 133.366 5.34971 133.582C5.27588 133.797 5.27219 134.031 5.33919 134.249C5.40619 134.466 5.54036 134.657 5.72209 134.792C5.90383 134.927 6.12359 135 6.34927 135H11.0572L11.867 133.307L12.1857 135H13.9588L13.4607 128.957Z" fill="#242424"/>
<path d="M36.2494 128.947L33.8052 129.482L30.5978 120.216L34.2047 119.426L36.2494 128.947Z" fill="#FEB8B8"/>
<path d="M36.8159 127.547L35.9777 127.679L33.3263 128.096L32.9013 128.163L33.2602 129.834L30.1389 133.199C29.9846 133.366 29.8869 133.577 29.8601 133.804C29.8334 134.03 29.879 134.259 29.9902 134.458C30.1015 134.656 30.2726 134.813 30.4786 134.907C30.6846 135 30.9147 135.024 31.1353 134.976L35.7346 133.967L36.1713 132.14L36.8372 133.726L38.5702 133.345L36.8159 127.547Z" fill="#242424"/>
<path d="M4.86423 86.6834C6.61926 96.4257 6.07755 90.2337 6.07755 90.2337C6.07755 90.2337 4.76129 91.7836 5.63881 92.6699C6.51632 93.5563 5.63881 95.3265 5.63881 95.3265L8.77556 121.097L9.26579 123.326H12.6974L12.9426 120.355L14.5096 105.948C14.5096 105.948 15.3871 104.175 14.9484 103.732C14.5096 103.289 15.3871 100.632 15.3871 100.632L16.4828 79.5977L20.5836 92.4744C20.5836 92.4744 19.9243 93.3607 20.5836 94.0242C21.2405 94.6877 25.2507 108.161 25.2507 108.161L30.1008 119.859L30.3459 120.107L31.5715 123.326L34.758 121.84L32.8665 105.346L32.788 104.992L32.7047 104.618C32.7047 104.618 33.1435 103.512 32.4865 102.846C32.2944 102.643 32.154 102.395 32.0776 102.125C32.0011 101.855 31.9909 101.571 32.0478 101.296C32.0693 101.273 32.089 101.248 32.1066 101.221C32.1842 101.114 32.2377 100.99 32.2635 100.86C32.3223 100.583 32.2708 100.194 31.8272 99.7458C31.7022 99.6117 31.5974 99.4599 31.5159 99.2952C30.8491 98.0202 30.5133 95.3191 30.5133 95.3191C30.5133 95.3191 29.9202 73.9256 27.9788 70.6575C27.8759 70.4867 25.0596 58.7305 24.9518 58.6636C22.7604 57.3366 7.13094 60.966 7.13094 60.966C7.13094 60.966 4.39852 70.452 4.35193 70.7442C4.09945 72.3856 3.37636 78.4192 4.86423 86.6834Z" fill="#242424"/>
<path d="M25.4263 35.8584C25.4098 35.7344 25.3909 35.6104 25.372 35.4864C25.1807 34.2439 25.9764 33.1803 24.947 32.3218C24.7059 32.1235 24.5095 31.8756 24.3709 31.5945L24.1348 31.1151L23.7004 30.2256L22.586 27.9577C22.3994 27.5781 22.1084 27.261 21.7478 27.0444L19.3868 25.6231C19.022 25.4042 18.7283 25.0826 18.5416 24.6978L18.4825 24.5761C18.2228 24.0372 17.7553 22.7447 17.2028 22.1842C17.0827 22.0456 16.9195 21.9523 16.7401 21.9195L14.3885 21.6834C14.0126 21.6452 13.6333 21.7062 13.2877 21.8605C12.9421 22.0147 12.6421 22.2569 12.417 22.5634L12.3533 22.8591L11.9755 24.5952L11.9543 24.6C11.8433 24.6262 11.7323 24.6525 11.6214 24.6835C9.18476 25.356 8.16718 33.9649 8.16718 33.9649C8.16718 33.9649 6.46015 36.8099 7.13068 38.5699L8.32775 41.4101C8.3373 41.4315 8.34442 41.4539 8.34899 41.4769C8.45765 41.7854 8.4956 42.1148 8.45998 42.4403L8.46232 42.5524L8.57095 50.3291L8.58037 50.9205L6.60892 59.5867C6.57672 59.8713 6.60039 60.1596 6.67858 60.435C6.75677 60.7104 6.88793 60.9675 7.06458 61.1916C7.10946 61.2489 7.15668 61.3037 7.20627 61.3562C7.25349 61.4039 7.30068 61.4492 7.35029 61.4921C7.58786 61.7019 7.86796 61.8567 8.17098 61.9457C8.474 62.0347 8.79262 62.0557 9.10453 62.0072L9.36893 61.9667L13.1914 61.3872L13.6377 61.3204L17.9135 60.6718L18.6478 60.5597C18.7068 60.5525 18.7635 60.5454 18.8225 60.5406L22.7371 60.2687C22.8274 60.2618 22.9172 60.2499 23.0062 60.233C23.3506 60.1648 23.6736 60.0136 23.9478 59.7923C24.222 59.571 24.4392 59.2861 24.581 58.9619C24.6403 58.8321 24.6854 58.6961 24.7156 58.5565C24.7494 58.4054 24.7676 58.2511 24.7699 58.0962L24.8148 54.3712L24.9635 42.3354C24.9665 41.9336 25.0801 41.5405 25.2917 41.2003C25.8867 40.2416 25.7545 38.0834 25.4263 35.8584Z" fill="#CD1315"/>
<path d="M18.944 68.5854C18.8889 68.2785 18.9012 67.963 18.9799 67.6613C19.0586 67.3597 19.2018 67.0791 19.3995 66.8393C19.5971 66.5996 19.8444 66.4066 20.124 66.2738C20.4035 66.1411 20.7084 66.0719 21.0173 66.071L23.4596 58.8999L25.8409 62.0216L23.1566 68.3528C23.1236 68.877 22.9013 69.3708 22.532 69.7405C22.1626 70.1103 21.6718 70.3303 21.1526 70.359C20.6333 70.3877 20.1217 70.223 19.7146 69.8961C19.3076 69.5692 19.0334 69.1029 18.944 68.5854V68.5854Z" fill="#FEB8B8"/>
<path d="M16.4898 22.0701C19.1608 22.0701 22.3857 27.297 23.9665 29.4717L24.6326 30.388C25.7384 31.9091 26.427 33.6982 26.6289 35.5742L27.3568 42.338V44.08L28.2633 53.4974L27.7135 54.8961L26.9474 63.5409C26.6301 63.621 26.3327 63.7665 26.0737 63.9682C25.8147 64.1699 25.5998 64.4235 25.4424 64.7131C25.285 65.0026 25.1886 65.3219 25.1592 65.6509C25.1297 65.9799 25.1679 66.3115 25.2713 66.6249L25.4969 67.3083L17.8139 64.9236L18.3645 63.1215C18.5071 62.6546 18.521 62.1573 18.4045 61.6831C18.2881 61.2088 18.0459 60.7757 17.7038 60.4302L18.0313 57.9494L13.2495 61.6164C13.2495 61.6164 5.19632 31.5933 16.4898 22.0701Z" fill="#242424"/>
<path d="M19.0043 15.426C19.0044 15.3476 18.9854 15.2705 18.949 15.2014C18.9126 15.1323 18.8598 15.0732 18.7955 15.0296C18.7311 14.9859 18.6571 14.9589 18.58 14.9509C18.5029 14.943 18.425 14.9544 18.3532 14.984C18.2815 15.0137 18.2181 15.0607 18.1686 15.121C18.1191 15.1813 18.0851 15.253 18.0695 15.3297C18.054 15.4064 18.0573 15.4858 18.0793 15.5609C18.1014 15.636 18.1414 15.7044 18.1958 15.7602L17.3297 17.0302C17.2942 17.0822 17.2807 17.1465 17.292 17.2087C17.3033 17.2709 17.3387 17.326 17.3902 17.3618C17.4418 17.3977 17.5054 17.4114 17.567 17.4C17.6286 17.3885 17.6831 17.3528 17.7186 17.3007L18.6923 15.8728C18.7835 15.8398 18.8624 15.7791 18.9183 15.6992C18.9741 15.6192 19.0041 15.5238 19.0043 15.426Z" fill="white"/>
<path d="M18.6345 15.8751C18.6671 15.8181 18.6477 15.7451 18.5912 15.7122C18.5348 15.6793 18.4626 15.6988 18.43 15.7559L18.1939 16.1689C18.1613 16.2259 18.1806 16.2989 18.2371 16.3318C18.2936 16.3647 18.3658 16.3452 18.3984 16.2881L18.6345 15.8751Z" fill="#242424"/>
</svg>
