<svg width="62" height="135" viewBox="0 0 62 135" fill="none" xmlns="http://www.w3.org/2000/svg">
<path d="M41.7211 132.722L45.5264 132.722L47.3366 118.065L41.7203 118.065L41.7211 132.722Z" fill="#FFB6B6"/>
<path d="M54.7585 132.636C54.877 132.835 54.9395 133.479 54.9395 133.71C54.9395 134.423 54.3613 135 53.648 135H41.8634C41.3768 135 40.9824 134.606 40.9824 134.12V133.63C40.9824 133.63 40.3994 132.158 41.5996 130.343C41.5996 130.343 43.0914 131.764 45.3204 129.538L45.9777 128.349L50.7358 131.824L53.3732 132.148C53.9502 132.219 54.4617 132.137 54.7585 132.636H54.7585Z" fill="#242424"/>
<path d="M15.4407 132.722L19.246 132.722L21.0562 118.065L15.4399 118.065L15.4407 132.722Z" fill="#FFB6B6"/>
<path d="M28.4781 132.636C28.5966 132.835 28.6591 133.479 28.6591 133.71C28.6591 134.423 28.0809 135 27.3676 135H15.5831C15.0964 135 14.702 134.606 14.702 134.12V133.63C14.702 133.63 14.119 132.158 15.3193 130.343C15.3193 130.343 16.811 131.764 19.04 129.538L19.6973 128.349L24.4554 131.824L27.0928 132.148C27.6698 132.219 28.1813 132.137 28.4781 132.636H28.4781Z" fill="#242424"/>
<path d="M42.8587 63.4992L44.2689 65.3516C44.2689 65.3516 44.3967 66.2165 46.5356 73.264L47.7091 126.234H40.6099L31.1225 83.8515L21.2747 127.083L15.1213 127.446L15.4099 78.3082C15.4099 78.3082 14.7619 76.5982 15.3131 74.5944C17.4227 66.925 17.3011 68.947 17.3876 66.3216C17.4974 62.9928 42.8587 63.4992 42.8587 63.4992Z" fill="#242424"/>
<path d="M31.6687 18.9871C35.7825 18.9871 39.1174 15.6569 39.1174 11.5488C39.1174 7.44081 35.7825 4.1106 31.6687 4.1106C27.5549 4.1106 24.22 7.44081 24.22 11.5488C24.22 15.6569 27.5549 18.9871 31.6687 18.9871Z" fill="#FEB8B8"/>
<path d="M27.6638 20.3865L23.5421 22.6613C20.1033 22.9099 17.6371 23.8236 15.4457 24.9252L17.8623 46.0836L17.4226 66.925C17.4226 66.925 31.1278 76.3006 44.2696 65.3512V37.0328L43.6526 25.7711C43.5807 24.458 42.4178 23.4393 41.1123 23.6118C40.3667 23.7103 39.5081 23.6912 38.6312 23.3993L35.9032 20.238L27.6638 20.3865V20.3865V20.3865Z" fill="#CD1315"/>
<path d="M50.9677 2.93186C51.3833 3.86798 51.5528 4.82023 51.4977 5.64573L56.0214 14.3137L51.828 16.3426L47.6907 7.33132C47.0411 6.81784 46.4481 6.05308 46.0325 5.11696C45.0829 2.9784 45.418 0.755611 46.7808 0.152212C48.1436 -0.451187 50.0181 0.793289 50.9677 2.93184V2.93186Z" fill="#FFB6B6"/>
<path d="M38.6312 23.3994L39.8791 23.9693C41.0239 22.7403 44.4728 22.9336 46.1461 23.0929L53.4995 23.7931L50.0656 13.0654L55.2352 10.988L61.4122 22.8593C61.7859 24.8732 60.9476 26.9194 59.2676 28.0944L43.5076 37.0319L41.6756 24.7897L38.6312 23.3994V23.3994V23.3994Z" fill="#CD1315"/>
<path d="M0.51982 73.7177C0.598317 72.6967 0.901246 71.7781 1.34169 71.0773L1.4743 61.3037L6.12966 61.5028L5.4939 71.3957C5.82206 72.1553 5.98099 73.1094 5.90249 74.1304C5.72316 76.4629 4.3728 78.2613 2.88642 78.1474C1.40003 78.0334 0.340455 76.0502 0.519789 73.7177L0.519814 73.7177L0.51982 73.7177Z" fill="#FFB6B6"/>
<path d="M18.8957 27.5986L16.7564 24.3538C16.7564 24.3538 13.2674 25.0188 11.4135 27.6458C9.55962 30.2728 2.5521 46.3837 2.5521 46.3837L1.20642 64.571L6.41867 63.4991L8.93359 49.706L17.0203 38.671L18.8957 27.5986L18.8957 27.5986Z" fill="#CD1315"/>
<path d="M39.1173 12.5355C39.3971 11.1177 35.0797 9.05391 35.0873 9.05633C35.7575 9.26995 34.7034 10.4961 34.015 10.3516C34.015 10.3516 33.0034 10.8654 33.5546 11.3075C31.6546 11.1448 29.1158 9.34165 27.2157 9.17901C26.4515 9.1123 26.1555 10.9526 25.6752 11.5489C24.9486 12.4622 24.2199 10.6459 24.4888 13.0656H24.3802C23.9835 12.1106 23.5868 11.139 23.4573 10.1131C23.3321 9.08728 23.5075 7.98219 24.1631 7.18154C24.3802 6.91047 23.5271 6.01814 23.7568 5.75959C24.4876 4.92139 25.9045 4.46261 26.5559 3.56605C27.4182 2.37834 28.3994 3.21666 30.1949 2.2178C30.6646 1.95647 31.4811 1.86241 32.0014 1.99809L33.2166 2.31501C32.9797 2.66986 33.2729 3.13786 33.6961 3.08042L35.2796 2.86546C35.8767 3.05727 36.4447 3.34083 36.7119 3.88712C36.8748 4.2124 36.904 4.59187 37.0293 4.93382C37.259 5.56351 37.8019 6.01807 38.2362 6.52681C39.4037 6.86633 39.4664 7.73787 39.4664 9.19938C40.5544 9.80889 39.4191 11.1717 39.1173 12.5355V12.5355L39.1173 12.5355Z" fill="#242424"/>
</svg>
