<svg width="144" height="111" viewBox="0 0 144 111" fill="none" xmlns="http://www.w3.org/2000/svg">
<path d="M21.5188 61.0821C21.3162 61.0329 21.1267 60.9395 20.9637 60.8086C20.8007 60.6777 20.6682 60.5124 20.5755 60.3243C20.4829 60.1362 20.4323 59.9299 20.4273 59.72C20.4223 59.5101 20.4631 59.3017 20.5468 59.1094L16.8286 55.6416L19.386 55.009L22.5247 58.3991C22.8362 58.5621 23.0774 58.8345 23.2028 59.1647C23.3282 59.4948 23.329 59.8599 23.205 60.1906C23.081 60.5213 22.8408 60.7947 22.5301 60.959C22.2193 61.1233 21.8595 61.1671 21.5188 61.0821H21.5188Z" fill="#FFB6B6"/>
<path d="M10.1725 51.6241L6.27528 40.1661C5.96733 39.2576 6.0298 38.2631 6.44899 37.4009C6.86817 36.5386 7.60983 35.8791 8.51123 35.567C9.01048 35.3947 9.54127 35.3353 10.0659 35.3929C10.5905 35.4505 11.0961 35.6237 11.5468 35.9002C11.9975 36.1768 12.3822 36.5499 12.6736 36.993C12.9651 37.4361 13.1561 37.9384 13.2331 38.4642L14.7908 49.1023L21.3072 55.8237L19.5932 58.2833L10.1725 51.6241Z" fill="#242424"/>
<path d="M3.73891 105.679H6.52124L7.8448 94.8708H3.7384L3.73891 105.679Z" fill="#FFB6B6"/>
<path d="M2.79686 104.297L7.19488 104.033V105.931L11.3762 108.839C11.5828 108.983 11.7383 109.189 11.8201 109.428C11.902 109.667 11.9059 109.926 11.8312 110.167C11.7565 110.409 11.6071 110.62 11.405 110.77C11.2028 110.919 10.9584 111 10.7074 111H2.24231L2.79686 104.297Z" fill="#242424"/>
<path d="M6.16956 54.9101C6.16956 54.9101 5.30218 53.995 3.63984 56.1571C2.10406 58.1149 2.18041 58.4971 2.37859 60.9843C2.54003 62.7627 0.958047 71.7012 2.53462 73.2205L3.80596 101.848C3.80596 101.848 7.66302 102.939 7.84465 101.109L17.8034 64.7068L16.6135 55.3996L6.16956 54.9101Z" fill="#242424"/>
<path d="M24.5901 105.408L27.0281 104.058L23.0178 93.9448L19.4194 95.9374L24.5901 105.408Z" fill="#FFB6B6"/>
<path d="M23.103 104.654L26.8305 102.289L27.7383 103.952L32.7937 104.471C33.0434 104.497 33.2784 104.602 33.4644 104.772C33.6504 104.942 33.7777 105.167 33.8277 105.415C33.8777 105.662 33.8478 105.92 33.7423 106.149C33.6368 106.378 33.4613 106.568 33.2413 106.69L28.653 109.23L27.5534 109.839L25.8234 110.797L23.103 104.654Z" fill="#242424"/>
<path d="M2.43464 59.7403C2.43464 59.7403 2.38431 64.3519 1.96185 67.0532C1.55258 69.5141 2.0829 72.0398 3.44628 74.1231C4.43847 75.6032 5.89978 76.983 8.00808 77.5493L22.8162 102.019C22.8162 102.019 26.7176 101.103 26.0018 99.4115L17.3155 62.6798L11.8207 55.1013L2.43464 59.7403Z" fill="#242424"/>
<path d="M2.31485 46.6932L1.87415 60.9843L16.5687 56.8886L16.8272 56.182L17.4572 53.7757C17.4572 53.7757 16.0002 50.3136 16.2973 42.2521L12.5855 32.2846L6.70598 32.1636L6.67319 32.1966C4.81627 34.0637 3.44661 36.3643 2.68619 38.8935C1.92578 41.4228 1.79821 44.1022 2.31485 46.6932Z" fill="#242424"/>
<path d="M31.8754 52.5665C31.676 52.6276 31.4657 52.6439 31.2593 52.6143C31.0529 52.5847 30.8555 52.5098 30.6809 52.395C30.5064 52.2802 30.3589 52.1283 30.249 51.9499C30.139 51.7715 30.0692 51.571 30.0445 51.3625L25.094 50.2723L26.9798 48.4211L31.3918 49.7402C31.7423 49.7217 32.0874 49.8332 32.3617 50.0538C32.636 50.2744 32.8204 50.5886 32.88 50.937C32.9396 51.2854 32.8703 51.6437 32.6851 51.944C32.5 52.2443 32.2119 52.4658 31.8754 52.5665V52.5665Z" fill="#FFB6B6"/>
<path d="M17.3344 50.2087L8.2072 42.3229C7.4844 41.6971 7.0376 40.808 6.96485 39.8508C6.8921 38.8935 7.19935 37.9463 7.81916 37.217C8.16277 36.8136 8.59035 36.4913 9.07153 36.273C9.55271 36.0547 10.0757 35.9458 10.6034 35.954C11.131 35.9622 11.6504 36.0873 12.1247 36.3205C12.599 36.5536 13.0165 36.889 13.3476 37.3029L20.0455 45.6766L29.0458 48.1422L28.8067 51.1376L17.3344 50.2087Z" fill="#242424"/>
<path d="M15.748 22.5198C15.7472 24.1407 15.1347 25.7007 14.0346 26.8837C12.9345 28.0667 11.429 28.7843 9.82323 28.8912C8.21742 28.998 6.63132 28.4861 5.38627 27.4591C4.14122 26.4321 3.3303 24.9668 3.11781 23.3602C2.90532 21.7535 3.30714 20.1255 4.24186 18.8061C5.17659 17.4866 6.57433 16.5744 8.15191 16.2541C9.7295 15.9339 11.369 16.2296 12.7382 17.0813C14.1074 17.933 15.104 19.2771 15.526 20.8413C15.6736 21.3884 15.7483 21.9529 15.748 22.5198Z" fill="#FFB8B8"/>
<path d="M13.439 14.1098C12.9249 14.0944 13.1014 13.1184 12.6872 12.8071C12.6852 12.8165 12.6831 12.826 12.6809 12.8354C12.6266 13.0462 12.5065 13.2339 12.3383 13.3708C12.1702 13.5077 11.9628 13.5866 11.7467 13.5959C11.5307 13.6052 11.3174 13.5444 11.1382 13.4224C10.9591 13.3004 10.8236 13.1237 10.7516 12.9183C10.683 12.6807 10.5586 12.4631 10.3891 12.284C10.2196 12.1049 10.0098 11.9694 9.77745 11.8889C9.75166 12.7935 9.07227 13.5787 8.26177 13.9694C7.45128 14.3601 6.52714 14.4251 5.62869 14.4385C4.73024 14.4519 3.81886 14.4216 2.94761 14.643C2.07639 14.8644 1.22895 15.3851 0.856717 16.2088C0.48447 17.0325 0.750059 18.1665 1.564 18.5499C0.933451 18.5533 0.398411 19.0773 0.180385 19.6733C0.00167002 20.2845 -0.0449553 20.9272 0.0436593 21.5581C0.220868 23.8943 0.65292 26.4094 2.3419 28.0206C3.62914 29.2485 5.47162 29.7431 7.24453 29.736C9.01744 29.7288 8.70571 29.5647 10.4199 29.1089C10.4199 29.1089 12.0497 24.4033 11.6393 23.9404C11.2289 23.4774 10.888 22.8851 10.9623 22.269C11.0366 21.653 11.6939 21.1011 12.2644 21.3356C12.1685 21.0886 12.0962 21.0416 12.0509 21.0541C12.0798 20.9839 12.1049 20.9123 12.1263 20.8394C12.2337 20.4683 12.427 20.1281 12.6904 19.8468C12.9537 19.5655 13.2796 19.3512 13.6412 19.2215C14.0064 19.1021 14.3992 19.0982 14.7668 19.2102C15.1343 19.3222 15.459 19.5449 15.6972 19.8482C17.5743 18.0751 16.4098 14.1987 13.439 14.1098Z" fill="#242424"/>
<path d="M122.481 61.0821C122.684 61.0329 122.873 60.9395 123.036 60.8086C123.199 60.6777 123.332 60.5124 123.424 60.3243C123.517 60.1362 123.568 59.9299 123.572 59.72C123.577 59.5101 123.537 59.3017 123.453 59.1094L127.171 55.6416L124.614 55.009L121.475 58.3991C121.164 58.5621 120.922 58.8345 120.797 59.1647C120.672 59.4948 120.671 59.8599 120.795 60.1906C120.919 60.5213 121.159 60.7947 121.47 60.959C121.78 61.1233 122.14 61.1671 122.481 61.0821H122.481Z" fill="#9E616A"/>
<path d="M124.407 58.2833L122.693 55.8237L129.209 49.1023L130.767 38.4642C130.844 37.9384 131.035 37.4361 131.326 36.993C131.618 36.5499 132.003 36.1768 132.453 35.9002C132.904 35.6237 133.41 35.4505 133.934 35.3929C134.459 35.3353 134.99 35.3947 135.489 35.567C136.39 35.8791 137.132 36.5386 137.551 37.4009C137.97 38.2631 138.033 39.2576 137.725 40.1661L133.828 51.6241L124.407 58.2833Z" fill="#CD1315"/>
<path d="M140.261 105.679H137.479L136.155 94.8708H140.262L140.261 105.679Z" fill="#9E616A"/>
<path d="M141.758 111H133.293C133.042 111 132.797 110.919 132.595 110.77C132.393 110.62 132.243 110.409 132.169 110.167C132.094 109.926 132.098 109.667 132.18 109.428C132.262 109.189 132.417 108.983 132.624 108.839L136.805 105.931V104.033L141.203 104.297L141.758 111Z" fill="#242424"/>
<path d="M137.83 54.9102C137.83 54.9102 140.08 58.9269 141.743 61.089C143.279 63.0468 143.081 64.0866 142.883 66.5737C142.721 68.3522 143.042 71.7012 141.465 73.2205L140.194 101.848C140.194 101.848 136.337 102.939 136.155 101.11L126.197 64.7069L127.386 55.3996L137.83 54.9102Z" fill="#242424"/>
<path d="M119.41 105.408L116.972 104.058L120.982 93.9448L124.581 95.9374L119.41 105.408Z" fill="#9E616A"/>
<path d="M118.177 110.797L116.447 109.839L115.347 109.23L110.759 106.69C110.539 106.568 110.363 106.378 110.258 106.149C110.152 105.92 110.122 105.662 110.172 105.415C110.222 105.167 110.35 104.942 110.536 104.772C110.722 104.602 110.957 104.497 111.206 104.471L116.262 103.952L117.169 102.289L120.897 104.654L118.177 110.797Z" fill="#242424"/>
<path d="M141.565 59.7403C141.565 59.7403 141.616 64.3519 142.038 67.0532C142.447 69.5141 141.917 72.0398 140.554 74.1231C139.561 75.6032 138.1 76.983 135.992 77.5493L121.184 102.019C121.184 102.019 117.282 101.103 117.998 99.4115L126.684 62.6798L132.179 55.1013L141.565 59.7403Z" fill="#242424"/>
<path d="M137.327 32.1966L137.294 32.1636L131.415 32.2846L127.703 42.2522C128 50.3136 126.543 53.7757 126.543 53.7757L127.173 56.182L125.225 68.0981L143.951 64.282L141.685 46.6932C142.202 44.1022 142.074 41.4228 141.314 38.8935C140.553 36.3643 139.184 34.0637 137.327 32.1966Z" fill="#CD1315"/>
<path d="M112.125 52.5665C112.324 52.6276 112.534 52.6439 112.741 52.6143C112.947 52.5846 113.144 52.5098 113.319 52.395C113.494 52.2802 113.641 52.1283 113.751 51.9499C113.861 51.7715 113.931 51.571 113.955 51.3625L118.906 50.2723L117.02 48.4211L112.608 49.7402C112.258 49.7217 111.913 49.8333 111.638 50.0538C111.364 50.2744 111.18 50.5886 111.12 50.937C111.06 51.2854 111.13 51.6437 111.315 51.944C111.5 52.2443 111.788 52.4658 112.125 52.5665L112.125 52.5665Z" fill="#9E616A"/>
<path d="M115.193 51.1376L114.954 48.1422L123.954 45.6766L130.652 37.3029C130.983 36.889 131.401 36.5536 131.875 36.3205C132.349 36.0873 132.869 35.9622 133.397 35.954C133.924 35.9458 134.447 36.0547 134.928 36.273C135.41 36.4913 135.837 36.8136 136.181 37.217C136.801 37.9463 137.108 38.8935 137.035 39.8508C136.962 40.808 136.516 41.6971 135.793 42.3229L126.665 50.2087L115.193 51.1376Z" fill="#CD1315"/>
<path d="M128.474 20.8413C128.896 19.2771 129.893 17.933 131.262 17.0813C132.631 16.2296 134.27 15.9339 135.848 16.2541C137.426 16.5744 138.823 17.4866 139.758 18.8061C140.693 20.1255 141.095 21.7535 140.882 23.3602C140.67 24.9668 139.859 26.4321 138.614 27.4591C137.369 28.4861 135.783 28.998 134.177 28.8912C132.571 28.7843 131.065 28.0667 129.965 26.8837C128.865 25.7007 128.253 24.1407 128.252 22.5198C128.252 21.9529 128.326 21.3884 128.474 20.8413Z" fill="#9E616A"/>
<path d="M130.561 14.1099C131.075 14.0945 137.473 14.4252 138.371 14.4386C139.27 14.452 140.181 14.4217 141.052 14.6431C141.924 14.8645 142.771 15.3852 143.143 16.2089C143.516 17.0326 143.602 19.0774 143.82 19.6734C143.998 20.2846 144.045 20.9273 143.956 21.5582C143.779 23.8944 143.347 26.4095 141.658 28.0207C140.371 29.2486 138.528 29.7432 136.755 29.7361C134.983 29.7289 135.294 29.5648 133.58 29.109C133.58 29.109 131.95 24.4034 132.361 23.9405C132.771 23.4775 133.112 22.8852 133.038 22.2691C132.963 21.6531 132.306 21.1012 131.736 21.3357C131.832 21.0887 131.904 21.0417 131.949 21.0542C131.92 20.984 131.895 20.9124 131.874 20.8395C131.766 20.4684 131.573 20.1282 131.31 19.8469C131.046 19.5656 130.72 19.3513 130.359 19.2216C129.994 19.1022 129.601 19.0983 129.233 19.2103C128.866 19.3223 128.541 19.545 128.303 19.8483C126.426 18.0752 127.59 14.1988 130.561 14.1099Z" fill="#242424"/>
<path d="M31.4338 52.1025C39.6527 51.0178 48.8279 49.9122 56.0202 55.0179C58.9169 57.0742 61.1836 60.0484 61.8752 63.5964C62.3125 65.8395 62.1734 68.1438 62.2016 70.4154C62.2268 72.4498 62.4084 74.4798 63.0891 76.408C64.2401 79.6686 66.4957 82.4378 69.2862 84.4254C72.3139 86.5491 75.9 87.7181 79.5889 87.784C87.7564 87.9894 95.2035 83.529 100.403 77.4446C105.987 70.9102 109.19 62.8062 111.985 54.7637C112.354 53.7033 112.719 52.6415 113.08 51.5785C113.239 51.1137 112.508 50.9141 112.35 51.3759C109.557 59.5516 106.692 67.8939 101.485 74.8813C96.7086 81.2897 89.7653 86.3841 81.6232 86.973C77.9114 87.2414 74.1768 86.5051 70.9529 84.6016C67.993 82.854 65.5131 80.2218 64.1418 77.0358C63.4038 75.2282 63.0096 73.2971 62.9799 71.3429C62.8978 69.0812 63.0627 66.8077 62.7858 64.5553C62.3419 60.9452 60.5214 57.7957 57.7882 55.4429C55.027 53.1232 51.7124 51.5697 48.1722 50.9357C43.7639 50.0992 39.2508 50.39 34.8239 50.9102C33.6926 51.0431 32.5631 51.1913 31.4338 51.3404C30.9578 51.4032 30.9516 52.1662 31.4338 52.1025Z" fill="#242424"/>
<path d="M99.0036 33.6495C97.5632 35.1891 95.4695 36.0046 93.3759 36.1672C91.8751 36.2836 90.3665 36.0886 88.9435 35.5945C87.5205 35.1003 86.2132 34.3174 85.1025 33.2942C83.9918 32.271 83.1013 31.0292 82.4859 29.6456C81.8706 28.262 81.5436 26.766 81.5251 25.2501C81.5024 23.5479 81.8707 21.8533 81.7874 20.151C81.5806 15.9463 78.6494 12.1252 78.9622 7.92548L80.9701 8.55302C79.6231 8.12619 78.2761 7.69937 76.9291 7.27254C76.4671 7.14822 76.0241 6.96102 75.6123 6.71614C74.4368 5.9387 74.0912 4.22377 74.6563 2.9255C75.2239 1.62724 76.533 0.758337 77.9128 0.468704C78.8518 0.289143 79.8165 0.295185 80.7532 0.486491C81.2015 0.566998 81.6446 0.67475 82.08 0.809153C83.3498 0.387705 84.6981 0.262929 86.0228 0.444289C87.3475 0.625649 88.6138 1.10838 89.7258 1.8559C91.0772 2.7916 92.1416 4.08976 92.7982 5.60334C93.218 6.55819 93.4633 7.58153 93.5222 8.62414C93.6735 11.4595 92.4728 14.3965 92.6443 17.1353C92.6812 17.8844 92.8476 18.6212 93.1362 19.3126C94.6245 22.8009 99.3038 24.1805 100.477 27.7907C101.13 29.8004 100.444 32.1098 99.0036 33.6495Z" fill="#242424"/>
<path d="M100.098 88.1654L98.1658 90.182L89.5239 83.6368L92.3751 80.6606L100.098 88.1654Z" fill="#9E616A"/>
<path d="M104.939 90.7748L103.568 92.2058L102.697 93.1153L99.061 96.9106C98.8868 97.0925 98.6593 97.2136 98.4119 97.2561C98.1645 97.2986 97.9101 97.2604 97.6858 97.147C97.4615 97.0335 97.2791 96.8509 97.1652 96.6256C97.0512 96.4004 97.0118 96.1443 97.0526 95.8949L97.8776 90.8447L96.5215 89.527L99.7641 86.5227L104.939 90.7748Z" fill="#242424"/>
<path d="M81.5294 92.007L79.0248 93.2273L73.1602 84.0779L76.8567 82.2771L81.5294 92.007Z" fill="#9E616A"/>
<path d="M85.1771 96.1402L83.4 97.0061L82.2703 97.5565L77.5568 99.853C77.3309 99.9631 77.0759 99.9975 76.8292 99.9514C76.5824 99.9052 76.3568 99.7807 76.1852 99.5962C76.0136 99.4118 75.9051 99.1769 75.8754 98.9258C75.8458 98.6748 75.8966 98.4208 76.0204 98.201L78.5269 93.7488L77.7064 92.0403L81.7798 90.3494L85.1771 96.1402Z" fill="#242424"/>
<path d="M85.6143 41.4446C85.6143 41.4446 87.8644 45.4613 89.5267 47.6234C91.0625 49.5813 90.8647 50.621 90.6665 53.1082C90.5051 54.8866 90.8258 58.2357 89.2493 59.755L88.5602 75.27L97.0589 85.0801C97.0589 85.0801 93.6229 89.9983 93.4413 88.169L80.8593 76.3858L73.9805 51.2413L75.1704 41.9341L85.6143 41.4446Z" fill="#242424"/>
<path d="M89.3494 46.2749C89.3494 46.2749 89.3997 50.8866 89.8222 53.5879C90.2314 56.0487 89.7011 58.5745 88.3377 60.6578C87.3456 62.1379 85.8842 63.5177 83.7759 64.084L76.567 75.9962L80.5714 87.5372C80.5714 87.5372 74.8157 90.8764 75.5316 89.1853L68.5647 74.18L74.4686 49.2144L79.9633 41.636L89.3494 46.2749Z" fill="#242424"/>
<path d="M85.1109 18.7313L85.0781 18.6982L79.1986 18.8193L75.4868 28.7868C75.7839 36.8483 74.3269 40.3104 74.3269 40.3104L74.9569 42.7167L75.2154 43.4233L91.7354 50.8167L89.4693 33.2278C89.9859 30.6369 89.8583 27.9575 89.0979 25.4282C88.3375 22.8989 86.9678 20.5983 85.1109 18.7313Z" fill="#CD1315"/>
<path d="M59.9085 39.1012C60.1079 39.1623 60.3182 39.1786 60.5246 39.1489C60.731 39.1193 60.9284 39.0445 61.103 38.9297C61.2775 38.8149 61.425 38.663 61.5349 38.4846C61.6449 38.3062 61.7147 38.1057 61.7394 37.8972L66.6899 36.807L64.8041 34.9558L60.3921 36.2749C60.0416 36.2563 59.6965 36.3679 59.4222 36.5885C59.1479 36.8091 58.9635 37.1233 58.9039 37.4717C58.8443 37.82 58.9136 38.1783 59.0988 38.4787C59.2839 38.779 59.572 39.0005 59.9084 39.1012L59.9085 39.1012Z" fill="#9E616A"/>
<path d="M62.9774 37.6722L62.7383 34.6769L71.7386 32.2113L78.4365 23.8376C78.7676 23.4237 79.1851 23.0882 79.6594 22.8551C80.1336 22.622 80.6531 22.4969 81.1807 22.4887C81.7084 22.4805 82.2314 22.5894 82.7126 22.8077C83.1937 23.0259 83.6213 23.3482 83.9649 23.7516C84.5847 24.481 84.892 25.4282 84.8192 26.3854C84.7465 27.3427 84.2997 28.2318 83.5769 28.8576L74.4496 36.7434L62.9774 37.6722Z" fill="#CD1315"/>
<path d="M98.002 51.2513C98.0824 51.0576 98.1197 50.8484 98.1111 50.6386C98.1026 50.4288 98.0485 50.2235 97.9527 50.037C97.8568 49.8506 97.7216 49.6875 97.5564 49.5594C97.3913 49.4313 97.2002 49.3412 96.9967 49.2955L96.4174 44.2251L94.3992 45.9288L95.2588 50.4826C95.2052 50.8319 95.2807 51.189 95.471 51.486C95.6613 51.783 95.9532 51.9994 96.2914 52.0941C96.6295 52.1889 96.9904 52.1554 97.3057 52.0001C97.621 51.8447 97.8687 51.5783 98.002 51.2513Z" fill="#9E616A"/>
<path d="M96.899 48.0327L93.916 47.9712L92.3851 38.7043L84.7865 31.1507C84.4109 30.7773 84.1215 30.3253 83.9389 29.8266C83.7563 29.3279 83.6849 28.7948 83.7299 28.2652C83.7748 27.7356 83.9349 27.2225 84.1989 26.7623C84.4629 26.302 84.8242 25.9059 85.2573 25.6022C86.0401 25.0544 87.0066 24.8417 87.9449 25.0108C88.8832 25.1799 89.7165 25.717 90.2621 26.5042L97.1346 36.4431L96.899 48.0327Z" fill="#CD1315"/>
<path d="M76.2581 7.37569C76.6802 5.81154 77.6767 4.46746 79.046 3.61573C80.4152 2.76399 82.0546 2.4683 83.6322 2.78855C85.2098 3.10881 86.6075 4.02106 87.5423 5.3405C88.477 6.65994 88.8788 8.2879 88.6663 9.89458C88.4538 11.5013 87.6429 12.9665 86.3979 13.9935C85.1528 15.0205 83.5667 15.5324 81.9609 15.4256C80.3551 15.3188 78.8496 14.6011 77.7495 13.4181C76.6494 12.2351 76.0369 10.6751 76.0361 9.05425C76.0359 8.48729 76.1105 7.92281 76.2581 7.37569Z" fill="#9E616A"/>
<path d="M75.4521 44.4282C74.3448 44.4243 73.2549 44.151 72.275 43.6316C71.2951 43.1121 70.4543 42.362 69.8242 41.4449C69.4749 40.9141 69.1733 40.2557 69.3769 39.6123C69.4317 39.3863 69.5659 39.188 69.7546 39.0541C69.9434 38.9201 70.1739 38.8595 70.4036 38.8835C70.9018 38.9537 71.3303 39.3373 71.6643 39.6891C72.116 40.1915 72.5306 40.7265 72.9047 41.2899C73.497 42.1329 74.6499 43.4976 73.7586 44.5071C73.0089 45.3562 71.7479 45.4282 70.7387 45.7343C69.6482 46.0651 68.5317 46.8073 68.4337 48.0592C68.3384 49.2767 69.4997 50.0981 70.5706 50.2745C71.2109 50.3663 71.8638 50.2987 72.472 50.0775C73.0803 49.8562 73.6255 49.4882 74.0598 49.0055C74.9092 48.0165 75.3729 46.7502 75.3645 45.4425C75.3628 45.3437 75.3231 45.2493 75.2537 45.1794C75.1843 45.1095 75.0906 45.0694 74.9925 45.0677C74.8943 45.066 74.7993 45.1027 74.7275 45.1702C74.6558 45.2376 74.6128 45.3305 74.6077 45.4292C74.589 46.6203 74.2015 47.8367 73.3256 48.6713C72.5056 49.4527 71.2024 49.8251 70.1339 49.3649C69.6053 49.1372 69.1136 48.6581 69.1955 48.0347C69.2706 47.4626 69.732 47.0146 70.2142 46.7563C71.3048 46.1721 72.6147 46.2237 73.6783 45.5497C74.6926 44.9069 75.0972 43.8313 74.6363 42.6911C74.3463 42.0584 73.9857 41.4611 73.5614 40.9107C73.1727 40.3325 72.7494 39.7787 72.294 39.2522C71.6103 38.4953 70.5386 37.7619 69.5091 38.3022C68.3358 38.918 68.414 40.4622 68.9568 41.4723C70.1947 43.7757 72.8867 45.1805 75.4389 45.1905C75.537 45.1888 75.6307 45.1487 75.7001 45.0788C75.7695 45.0089 75.8092 44.9146 75.8109 44.8158C75.8127 44.7169 75.7762 44.6213 75.7093 44.549C75.6423 44.4767 75.5501 44.4334 75.4521 44.4282L75.4521 44.4282Z" fill="#242424"/>
<path d="M92.6442 17.1354L82.5894 15.0648C82.2237 13.1212 85.6013 10.5018 86.4791 7.30818C84.9101 7.11763 82.8089 6.80005 80.9902 6.38593C79.1714 5.96926 77.6327 5.45859 77.1887 4.87679C77.5111 3.2923 78.4449 1.90156 79.785 1.01021C81.125 0.118864 82.7615 -0.200161 84.335 0.123248L85.5685 0.377312C85.6088 0.384934 85.6492 0.395096 85.6896 0.405259C87.2016 0.746004 88.5251 1.66047 89.3851 2.9586C90.6485 3.66204 91.7991 4.5537 92.798 5.60341C93.2179 6.55826 93.4631 7.5816 93.522 8.62422C93.6733 11.4596 92.4726 14.3966 92.6442 17.1354Z" fill="#242424"/>
</svg>
